<?xml version="1.0" encoding="UTF-8"?>
<svg xmlns="http://www.w3.org/2000/svg" xmlns:xlink="http://www.w3.org/1999/xlink" width="182pt" height="250pt" viewBox="0 0 182 250" version="1.1">
<g id="surface3">
<path style="fill-rule:nonzero;fill:rgb(80%,80%,80%);fill-opacity:1;stroke-width:0.5;stroke-linecap:butt;stroke-linejoin:miter;stroke:rgb(100%,100%,100%);stroke-opacity:1;stroke-miterlimit:4;" d="M 240.757061 468.873906 L 239.087547 471.268516 L 233.47873 478.339656 L 232.859697 475.043547 L 232.109354 472.188797 L 232.193767 471.522063 L 231.4997 468.892687 L 232.437629 465.051922 L 236.461345 460.751016 L 236.817758 460.356609 L 238.037066 457.868094 L 240.456924 455.576781 L 242.829885 455.126031 L 243.139402 461.314453 L 242.051404 463.709062 L 241.863818 467.700078 Z M 247.453876 444.448891 L 247.013049 442.796141 L 247.106842 438.720609 L 246.356499 439.199531 L 245.793741 441.857078 L 244.593192 443.763375 L 244.283675 446.608734 L 246.731671 444.214125 Z M 241.751266 416.389703 L 241.460508 415.610281 L 237.530585 412.43625 L 236.827138 412.887 L 238.702996 417.150344 L 242.220231 419.338359 L 242.482851 418.718578 L 242.379679 418.267828 L 242.482851 417.535359 L 240.081752 416.624469 L 241.516784 416.474219 Z M 236.451966 405.703172 L 237.19293 404.416656 L 237.624378 405.693781 L 238.346583 405.590484 L 238.506031 404.782891 L 236.770862 402.613656 L 234.773073 403.261609 L 234.801211 405.252422 L 236.442587 404.942531 L 235.898588 405.712562 Z M 245.887534 452.665687 L 245.54988 449.341406 L 242.445334 449.726422 L 240.757061 454.928828 L 244.199262 454.365391 Z M 232.634594 486.349859 L 234.219694 485.091516 L 234.079005 484.227578 L 233.338041 483.05375 L 232.578318 483.701703 Z M 238.721755 477.306688 L 239.528374 476.902891 L 240.616372 475.6915 L 239.472098 475.362828 L 237.211689 477.419375 Z M 195.69894 485.833375 L 193.279082 488.058953 L 191.356327 487.899313 L 188.617574 485.711297 L 189.255366 481.861141 L 188.636332 481.438562 L 189.321021 479.306891 L 192.91329 477.240953 L 193.56984 475.982609 L 193.419772 473.644344 L 195.014251 469.606375 L 199.610105 465.512062 L 201.26086 462.563406 L 204.093407 463.399172 L 206.663333 461.999969 L 207.563745 457.633328 L 208.867467 454.994562 L 208.042089 451.585766 L 207.000987 451.313437 L 207.047884 447.679266 L 205.800438 443.181156 L 206.109954 440.861672 L 206.766505 440.129203 L 209.045673 440.664469 L 210.27436 440.101031 L 211.465531 437.903625 L 212.093943 432.992328 L 214.767042 430.644672 L 215.423592 427.254656 L 219.250343 427.076234 L 220.207031 425.742766 L 220.244548 424.381125 L 221.576408 425.2075 L 225.365642 425.939969 L 226.444261 428.569344 L 228.31074 426.972938 L 226.931984 423.273031 L 230.271012 420.671828 L 228.873498 416.408484 L 234.754314 415.469422 L 240.203683 419.253844 L 240.954026 420.390109 L 241.516784 423.329375 L 243.15816 426.052656 L 242.042024 428.081031 L 241.516784 426.907203 L 241.488646 431.076641 L 245.437328 436.063063 L 242.811126 445.932609 L 241.638715 447.857687 L 236.648931 452.646906 L 235.223279 456.262297 L 233.525627 457.426734 L 232.95349 458.732031 L 226.97888 466.329047 L 223.01144 465.211562 L 221.829649 465.699875 L 217.759036 468.995984 L 215.236006 475.869922 L 213.303872 474.677312 L 211.259186 476.367625 L 210.54636 478.611984 L 209.09257 477.813781 L 208.004572 476.170422 L 205.697266 475.203187 L 205.490921 475.729062 L 202.564582 476.348844 L 201.692308 475.653937 L 200.651206 476.010781 L 198.831623 478.827969 L 199.872725 481.138062 L 197.368454 481.307094 L 196.740041 482.180422 L 196.974524 483.861344 Z M 240.156787 384.461578 L 240.90713 384.79025 L 242.529748 384.9405 L 242.886161 382.968469 L 240.391269 383.813625 Z M 241.479267 375.099125 L 239.387685 370.817 L 238.778031 369.586828 L 236.076794 370.647969 L 235.317072 370.356859 L 235.814174 370.06575 L 238.3841 368.957656 L 238.402859 368.121891 L 236.498862 367.840172 L 235.016934 368.582031 L 232.306319 370.901516 L 232.137491 370.995422 L 227.869913 372.291328 L 226.003434 373.606016 L 229.098601 374.291531 L 231.837354 376.132094 L 232.95349 376.930297 L 233.516247 376.319906 L 236.986586 383.353484 L 239.744098 382.855781 L 241.666853 381.203031 L 242.135817 379.803828 Z M 191.72212 476.283109 L 187.792196 475.700891 L 186.01013 473.973016 L 185.175373 470.526656 L 188.992746 468.902078 L 189.686813 467.136641 L 189.217849 463.427344 L 189.639917 461.107859 L 193.30722 457.896266 L 192.266119 456.215344 L 188.758263 454.431125 L 192.64129 453.00375 L 193.888736 451.736016 L 194.592183 447.914031 L 196.35549 447.040703 L 197.124592 445.387953 L 197.040179 443.040297 L 195.614526 439.293437 L 197.434109 437.556172 L 199.497553 433.959563 L 202.920995 430.870047 L 202.949133 428.127984 L 204.721819 425.047859 L 204.900026 424.287219 L 206.381954 422.859844 L 205.697266 421.648453 L 203.774511 422.099203 L 204.290372 418.878219 L 205.716024 415.938953 L 203.868304 414.286203 L 203.11796 411.093391 L 206.16623 409.882 L 209.008156 410.576906 L 211.381117 409.628453 L 212.759873 409.966516 L 213.960422 407.308969 L 217.083727 407.478 L 218.087311 409.083797 L 218.865792 408.999281 L 221.839028 403.778094 L 223.180267 403.130141 L 222.889509 400.266 L 224.005645 400.172094 L 224.906057 401.571297 L 227.044536 401.092375 L 227.635431 400.219047 L 226.678743 399.007656 L 227.747982 397.796266 L 229.820806 398.322141 L 232.765904 401.214453 L 233.713213 403.458812 L 232.69087 404.397875 L 233.703833 404.191281 L 234.097764 414.605484 L 228.235706 416.211281 L 229.3706 420.606094 L 226.931984 422.568734 L 226.697502 423.611094 L 227.7855 426.381328 L 226.706881 427.480031 L 225.515711 425.508 L 222.167303 424.888219 L 220.582203 423.883422 L 219.766204 424.127578 L 219.325378 426.287422 L 218.068553 426.907203 L 216.211453 426.4095 L 214.729524 426.888422 L 214.39187 429.602312 L 211.043462 433.696625 L 210.208705 439.199531 L 209.317673 439.546984 L 208.117123 439.021109 L 205.725404 439.922609 L 205.031336 441.096437 L 205.950507 451.078672 L 207.976434 454.797359 L 206.475747 457.473687 L 205.650369 461.361406 L 200.988861 461.539828 L 198.165694 465.258516 L 194.592183 467.972406 L 192.575635 471.597187 Z M 231.809216 397.157703 L 230.843149 395.392266 L 229.63322 395.326531 L 229.783289 396.641219 L 231.602872 398.209453 Z M 246.356499 424.803703 L 244.096089 425.949359 L 241.807542 430.428687 L 246.675395 435.997328 L 246.318982 432.165953 L 246.919257 428.193719 L 246.891119 427.630281 L 247.228773 425.451656 Z M 247.6696 476.686906 L 245.005881 481.091109 L 243.833469 485.15725 L 245.831259 484.828578 L 247.219394 484.697109 L 249.545458 481.767234 L 250.699111 480.452547 L 252.190419 476.611781 L 249.901872 476.44275 Z M 243.720918 473.447141 L 241.798163 471.090094 L 240.166166 472.667719 L 239.537753 474.818172 L 241.235405 475.297094 L 241.498025 475.287703 L 243.176919 476.283109 L 244.546296 475.081109 Z M 239.32203 477.729266 L 236.151829 478.273922 L 234.097764 481.213188 L 234.032109 482.762641 L 234.801211 485.016391 L 240.147407 485.711297 L 240.016097 484.396609 L 241.216647 482.950453 L 242.661058 478.086109 L 243.02685 476.931062 L 241.263543 475.644547 Z M 256.129722 481.344656 L 254.629035 482.687516 L 253.644209 484.988219 L 253.991243 488.256156 L 255.304344 488.087125 L 257.752339 483.100703 L 257.011375 481.654547 Z M 262.226262 482.988016 L 260.781851 483.128875 L 259.253026 486.143266 L 260.613024 486.105703 L 260.500472 484.997609 L 261.466539 484.161844 L 261.560332 485.100906 L 262.141848 485.100906 L 263.05164 484.302703 L 262.864054 483.579625 Z M 247.763393 419.357141 L 245.756224 418.521375 L 243.570849 418.943953 L 242.614161 420.230469 L 243.083126 421.770531 L 244.405606 422.549953 L 245.221605 424.371734 L 247.219394 424.75675 L 247.013049 422.071031 L 246.572223 420.643656 L 246.994291 419.995703 Z M 258.67151 419.141156 L 267.656872 430.297219 L 267.178529 433.527594 L 265.208877 437.067859 L 265.293291 447.500844 L 263.623777 458.816547 L 262.526399 461.746422 L 260.13468 465.605969 L 255.782688 468.845734 L 251.702696 473.418969 L 247.913462 474.536453 L 245.643673 474.743047 L 244.461882 473.475312 L 242.661058 471.071312 L 242.398438 469.493687 L 244.555675 462.788781 L 244.977743 455.266891 L 247.341325 452.40275 L 249.892492 446.214328 L 250.520905 440.542391 L 249.582976 436.757969 L 249.029597 420.061438 L 247.566428 417.864031 L 244.62133 416.906187 L 244.255537 417.366328 L 242.661058 416.652641 L 240.091132 413.478609 L 236.461345 411.656828 L 237.493067 409.966516 L 240.37251 408.210469 L 240.531958 406.42625 L 239.594029 403.374297 L 238.91872 402.932937 L 237.211689 402.82025 L 237.342999 399.129734 L 236.920931 398.566297 L 236.067415 397.843219 L 236.039277 402.050219 L 234.998176 402.604266 L 232.447008 398.876187 L 231.856113 395.824234 L 230.674322 394.641016 L 229.858323 394.866391 L 229.136118 392.584469 L 228.123154 392.809844 L 226.922605 394.471984 L 226.397364 394.443812 L 226.913225 395.476781 L 227.38219 396.941719 L 225.600124 398.885578 L 226.669364 400.275391 L 225.018608 401.289578 L 224.268265 399.552312 L 222.936405 399.411453 L 222.420544 400.341125 L 222.598751 402.951719 L 221.613925 403.599672 L 218.406207 408.895984 L 217.290071 407.271406 L 213.876009 406.877 L 212.609804 409.712969 L 210.893394 409.290391 L 208.989397 410.33275 L 206.17561 409.487594 L 202.817823 410.811672 L 203.549408 414.596094 L 205.397128 416.032859 L 204.149682 417.770125 L 203.239891 421.920781 L 203.858924 422.587516 L 205.837955 422.136766 L 206.053679 422.775328 L 204.412303 424.099406 L 202.59272 427.827484 L 202.508306 430.597719 L 199.54445 432.917203 L 196.861972 437.368359 L 194.751631 439.359172 L 194.779769 440.955578 L 196.111629 443.199937 L 195.380044 445.603937 L 193.476047 448.336609 L 192.857014 452.027125 L 189.189711 452.919234 L 188.120471 453.895859 L 188.458126 456.440719 L 192.106671 457.81175 L 189.245986 459.492672 L 187.86723 461.314453 L 187.632748 463.042328 L 188.570677 465.887687 L 184.912753 469.033547 L 183.787238 471.174609 L 185.391097 477.766828 L 184.387513 479.156641 L 182.577309 479.813984 L 180.542003 478.668328 L 180.035521 474.085703 L 178.638007 471.888297 L 177.099803 466.995781 L 178.112766 460.319047 L 175.0176 451.416734 L 174.107808 445.904437 L 179.11635 434.325797 L 184.265582 429.949766 L 185.428614 424.550156 L 188.111092 424.399906 L 187.820334 423.742562 L 186.000751 423.460844 L 183.533997 424.700406 L 184.368754 425.169938 L 183.927928 428.503609 L 176.593321 434.879844 L 174.361049 432.56975 L 175.252082 429.780734 L 175.336496 431.010906 L 178.375386 429.179734 L 180.570141 428.728984 L 181.37676 427.536375 L 180.307521 426.371938 L 178.131525 426.756953 L 176.086839 426.155953 L 175.486564 424.878828 L 176.161873 423.282422 L 178.647386 423.226078 L 183.018136 424.399906 L 182.980619 423.066438 L 178.928765 422.812891 L 181.817587 419.141156 L 182.868067 414.915375 L 181.920759 413.873016 L 178.600489 413.394094 L 179.425867 409.450031 L 176.19939 407.693984 L 177.034147 405.966109 L 178.394145 407.487391 L 179.266419 407.083594 L 180.560762 405.919156 L 179.79166 405.017656 L 177.446836 404.219453 L 174.595531 404.764109 L 173.68574 403.900172 L 177.756353 400.970297 L 179.951107 401.458609 L 180.232486 398.481781 L 178.337869 398.61325 L 178.4598 397.214047 L 177.568767 396.312547 L 180.964071 395.711547 L 180.476348 394.143312 L 178.647386 393.917937 L 180.560762 391.70175 L 181.620622 391.016234 L 180.71083 387.250594 L 183.046274 388.349297 L 188.092333 386.799844 L 189.72433 380.517516 L 191.975361 380.001031 L 192.11605 376.535891 L 193.17591 376.479547 L 195.595768 372.967453 L 198.268866 372.817203 L 199.056726 369.596219 L 199.788311 368.920094 L 199.047347 368.328484 L 200.679344 367.849562 L 201.645411 366.431578 L 204.459199 367.549062 L 206.625816 366.093516 L 208.464157 368.431781 L 208.051468 371.990828 L 208.55795 372.46975 L 207.657538 374.338484 L 208.539191 376.554672 L 209.22388 375.531094 L 210.818359 375.540484 L 210.255602 376.37625 L 210.630774 377.033594 L 212.26277 375.465359 L 213.303872 376.103922 L 216.952417 375.812813 L 217.17752 373.221 L 215.629936 370.169047 L 216.502211 367.793219 L 221.323167 367.586625 L 226.162882 369.183031 L 226.369226 369.859156 L 225.196815 370.948469 L 222.711302 371.502516 L 226.425502 372.253766 L 224.033783 373.174047 L 229.379979 375.399625 L 230.083426 375.794031 L 234.088384 378.939891 L 236.170587 383.315922 L 232.794042 386.095547 L 232.82218 386.612031 L 231.208941 389.673375 L 231.75294 391.861391 L 232.672111 392.443609 L 232.803421 393.091563 L 234.125901 391.354297 L 232.146871 389.053594 L 234.857486 386.020422 L 235.035693 385.147094 L 236.423828 384.480359 L 245.531121 386.189453 L 248.626288 388.856391 L 250.239526 391.466984 L 249.170287 392.434219 L 247.14436 392.875578 L 241.385474 392.434219 L 237.146034 394.227828 L 234.435418 393.251203 L 233.403696 393.608047 L 235.832933 394.302953 L 236.874034 395.983875 L 239.378305 393.824031 L 242.557885 393.335719 L 243.580228 393.335719 L 246.20643 393.852203 L 247.847806 394.763094 L 252.593729 409.337344 L 254.704069 411.638047 L 257.123927 412.962125 Z M 213.800974 475.653937 L 214.92649 476.74325 L 214.616973 478.771625 L 211.193531 486.565844 L 210.621394 490.049766 L 207.169815 492.989031 L 204.740578 494.134687 L 201.786101 494.068953 L 196.899489 492.491328 L 194.554666 490.387828 L 194.526528 488.190422 L 195.745836 487.805406 L 197.462247 484.25575 L 197.396592 481.720281 L 199.41314 481.767234 L 200.191621 481.166234 L 199.291209 478.480516 L 201.364032 475.963828 L 202.376996 476.696297 L 206.30692 475.738453 L 208.051468 476.959234 L 208.267192 478.180016 L 208.811191 478.029766 L 210.893394 479.316281 L 212.00015 476.189203 Z M 223.902473 474.771219 L 223.752404 472.949437 L 219.869377 475.860531 L 215.095317 485.852156 L 215.545523 488.350062 L 216.502211 489.429984 L 219.850618 488.932281 L 221.510753 487.119891 L 219.700549 482.45275 Z M 223.227163 469.221359 L 226.519295 466.441734 L 224.952953 465.962812 L 223.199026 465.408766 L 220.516548 467.944234 L 218.265518 472.019766 L 218.462483 473.869719 L 218.303035 474.968422 L 223.01144 469.766016 Z M 225.647021 485.899109 L 228.357637 485.241766 L 229.248669 483.983422 L 229.6426 482.875328 L 226.125365 484.349656 Z M 226.941363 489.458156 L 226.71626 490.744672 L 229.408117 490.181234 L 229.183014 487.983828 Z M 231.237079 471.052531 L 229.970875 468.592187 L 225.346884 471.108875 L 225.103022 471.428156 L 224.155713 472.592594 L 224.540264 474.959031 L 221.482615 480.424375 L 220.600962 482.236766 L 221.088685 485.382625 L 222.74882 486.603406 L 223.583577 486.5095 L 224.530885 484.621984 L 229.689496 482.199203 L 232.400112 479.062734 Z M 234.54797 490.040375 L 234.660521 488.697516 L 233.891419 488.415797 L 231.462182 489.796219 L 230.927563 491.655562 L 231.377769 492.857562 L 232.747145 492.97025 L 235.692243 491.101516 L 235.945484 490.491125 L 235.317072 490.941875 Z M 237.305482 486.603406 L 235.645347 485.476531 L 233.769488 487.580031 L 237.708791 488.575437 L 238.309066 488.181031 L 237.886998 487.129281 Z M 237.305482 486.603406 " transform="matrix(0.416476,0,0,0.415973,0,0)"/>
<path style="fill-rule:nonzero;fill:rgb(80%,80%,80%);fill-opacity:1;stroke-width:0.5;stroke-linecap:butt;stroke-linejoin:miter;stroke:rgb(100%,100%,100%);stroke-opacity:1;stroke-miterlimit:4;" d="M 269.776593 436.016109 L 269.467076 439.828703 L 268.838663 440.401531 L 268.463492 439.997734 L 269.241973 437.734594 L 268.491629 437.171156 L 268.229009 436.363563 L 269.448317 433.950172 Z M 272.158933 444.430109 L 273.040586 443.857281 L 274.212998 440.636297 L 273.593965 438.373156 L 271.511762 443.519219 Z M 277.89906 436.579547 L 278.780713 435.001922 L 278.808851 433.527594 L 277.63644 431.705812 L 275.741823 432.804516 L 275.685547 435.368156 L 276.811062 436.6265 Z M 280.215745 445.200141 L 278.499335 438.711219 L 277.120579 439.133797 L 277.092441 445.397344 L 269.570248 464.629344 L 270.789556 465.944031 L 271.961968 466.939437 L 272.787345 466.610766 L 273.38762 463.756016 L 277.533268 457.361 L 279.380988 452.797156 Z M 285.299322 438.457672 L 284.098772 436.532594 L 281.810225 438.551578 L 283.142084 440.307625 L 285.139874 439.246484 Z M 283.395325 443.800937 L 282.832568 442.289047 L 281.660156 443.378359 L 282.438638 446.233109 Z M 279.334092 428.297016 L 279.024575 429.283031 L 280.337676 436.560766 L 281.594501 437.565562 L 283.226498 435.894031 L 283.901807 433.527594 L 284.539599 429.555359 L 281.941535 427.827484 Z M 280.81602 441.368766 L 281.500708 443.077859 L 282.776292 441.791344 L 281.35064 440.251281 Z M 253.50352 380.104328 L 253.090831 379.418813 L 250.633456 376.338687 L 249.958147 376.000625 L 248.776356 376.817609 L 251.299386 380.921312 L 251.533868 381.118516 L 254.338277 385.701141 L 254.713449 385.306734 L 255.098 384.161078 L 253.512899 380.451781 Z M 243.261332 352.261125 L 243.261332 352.242344 L 243.120643 352.411375 Z M 277.176854 431.179937 L 276.951751 429.114 L 275.207203 429.874641 L 275.891891 431.330187 Z M 282.166638 465.709266 L 280.168849 464.929844 L 279.343471 465.380594 L 277.702095 468.93025 L 278.039749 471.03375 L 279.052713 471.916469 L 281.181812 470.752031 L 282.663741 468.770609 L 282.297948 468.376203 L 282.982637 466.977 Z M 272.177691 422.812891 L 272.487208 424.183922 L 274.597549 424.540766 L 275.197824 424.597109 L 278.836989 423.226078 L 276.454649 419.667031 L 274.860169 420.117781 L 276.107615 419.253844 L 272.777966 416.417875 L 268.407216 416.032859 L 266.484461 414.708781 L 265.021291 416.032859 L 265.096326 416.755937 L 271.66183 423.535969 Z M 302.791702 431.348969 L 303.260667 432.701219 L 304.564389 433.508812 L 305.258456 431.348969 L 304.348665 430.231484 Z M 315.359954 405.505969 L 315.050438 404.454219 L 313.718578 402.82025 L 310.342033 401.045422 L 307.819003 402.585484 L 308.972656 407.393484 L 311.43941 410.473609 L 314.328232 411.337547 L 316.598021 412.990297 L 317.929881 409.205875 L 317.882984 407.553125 Z M 306.768522 411.093391 L 305.34287 411.037047 L 304.789492 410.708375 L 304.057907 412.43625 L 304.93956 416.079813 L 306.712247 413.281406 Z M 306.946729 418.474422 L 305.539835 421.188312 L 304.967698 422.981922 L 305.990041 424.099406 L 309.432242 419.789109 L 309.723 417.967328 L 308.888243 417.272422 Z M 329.832203 421.066234 L 323.838835 413.140547 L 322.197459 411.9855 L 319.79636 413.33775 L 320.143394 414.013875 L 318.924086 413.873016 L 318.295673 415.300391 L 318.933465 415.807484 L 318.183122 416.061031 L 319.824498 423.789516 L 321.51277 428.268844 L 324.917454 434.147375 L 327.712483 435.377547 L 329.916617 435.133391 L 333.227507 433.6215 L 333.98723 431.799719 L 333.602679 428.775937 Z M 363.607036 483.974031 L 362.003177 481.729672 L 359.320699 483.917687 L 358.757941 486.462547 L 359.892836 491.542875 L 359.029941 493.730891 L 359.189389 496.811016 L 358.279597 498.642187 L 358.823596 500.097734 L 359.527043 499.975656 L 364.057242 487.739672 Z M 434.561384 538.411484 L 431.869527 524.597875 L 430.171875 504.248391 L 430.922218 493.552469 L 431.775734 491.618 L 431.222356 490.406609 L 432.554215 485.664344 L 431.212976 480.058141 L 431.128563 474.048141 L 429.956151 470.273109 L 430.518909 468.272906 L 427.283053 461.079687 L 428.886912 460.018547 L 430.978494 461.8685 L 431.353666 456.675484 L 430.490771 455.717641 L 429.83422 448.214531 L 428.746223 444.965375 L 428.877533 441.791344 L 426.832847 434.654469 L 425.632297 421.676625 L 424.581817 418.286609 L 423.634508 417.460234 L 424.478644 415.798094 L 424.422369 413.243844 L 423.221819 405.966109 L 421.09272 399.956109 L 419.957825 398.115547 L 418.954241 397.251609 L 419.441964 396.199859 L 418.607207 395.035422 L 418.616587 393.617437 L 416.872038 391.072578 L 417.397279 390.142906 L 417.37852 389.081766 L 417.369141 387.785859 L 416.797004 386.180062 L 415.793419 383.992047 L 414.424043 384.658781 L 413.101562 382.029406 L 411.872875 381.710125 L 411.01936 380.141891 L 409.040329 379.813219 L 409.978258 374.535687 L 409.978258 369.370844 L 410.74736 367.333078 L 409.828189 364.365641 L 408.139917 362.487516 L 408.862122 360.271328 L 408.046124 359.304094 L 408.702674 357.040953 L 408.505709 354.59 L 407.821021 353.773016 L 407.717849 349.162219 L 412.173013 348.288891 L 411.403911 345.931844 L 410.334671 343.959812 L 410.21274 341.959609 L 408.824605 340.504062 L 409.81881 337.733828 L 409.528052 336.475484 L 408.955915 335.611547 L 408.468192 334.813344 L 407.595918 334.569187 L 407.783504 331.752 L 406.911229 331.169781 L 406.695506 329.188359 L 405.823231 329.49825 L 405.663783 326.981562 L 405.560611 326.117625 L 405.035371 324.680859 L 404.191235 323.507031 L 404.172476 320.004328 L 403.19703 319.074656 L 403.694132 316.952375 L 402.174687 313.552969 L 401.396205 312.745375 L 401.377447 310.763953 L 402.024618 309.768547 L 400.27069 309.280234 L 401.527515 302.75375 L 399.117037 299.298 L 397.49442 299.457641 L 396.518973 300.772328 L 397.025455 302.997906 L 396.209457 305.185922 L 394.530563 306.378531 L 393.836496 305.805703 L 394.286702 302.659844 L 392.936083 301.457844 L 391.369742 301.101 L 390.85388 297.936359 L 389.990986 297.851844 L 387.993196 298.856641 L 383.810032 304.55675 L 382.384379 304.491016 L 382.037345 306.857453 L 380.508521 307.796516 L 377.216389 306.068641 L 376.062736 306.453656 L 372.357916 299.14775 L 370.341368 299.363734 L 369.891162 302.265437 L 368.484268 304.030875 L 369.825507 310.529187 L 369.300266 313.740781 L 370.510195 314.510812 L 370.238195 318.699031 L 370.885367 319.58175 L 370.116265 320.473859 L 371.485641 322.079656 L 371.579434 324.314625 L 368.45613 325.657484 L 368.962612 328.211734 L 368.446751 328.869078 L 364.863861 328.484062 L 359.602078 332.672281 L 358.739183 334.268687 L 359.292561 334.691266 L 355.944154 338.917047 L 352.436298 346.523453 L 352.830228 348.326453 L 354.434087 350.007375 L 354.359053 351.923063 L 355.109396 353.322266 L 355.700292 357.181812 L 356.422497 357.961234 L 356.300567 360.008391 L 357.116565 360.815984 L 357.247875 362.844359 L 357.31353 364.5065 L 357.482357 365.323484 L 356.581945 366.178031 L 353.317952 366.3095 L 352.858366 368.638375 L 350.579198 372.225594 L 348.187479 374.329094 L 345.636311 372.976844 L 344.71714 374.469953 L 343.497832 374.479344 L 341.781422 374.601422 L 341.368733 374.958266 L 338.236049 377.315313 L 336.885431 377.700328 L 337.56074 375.953672 L 336.200743 375.709516 L 334.878262 376.97725 L 332.946128 375.643781 L 332.92737 374.300922 L 331.651786 373.793828 L 332.064475 371.662156 L 332.148888 369.840375 L 330.676339 369.746469 L 330.948339 368.159453 L 330.751374 366.976234 L 330.00103 365.229578 L 330.376202 364.450156 L 328.528481 362.581422 L 329.278825 361.698703 L 327.909448 360.393406 L 328.54724 359.435563 L 328.050137 358.017578 L 327.440483 356.477516 L 326.924622 355.716875 L 326.042969 353.115672 L 325.770969 351.772812 L 323.210422 351.453531 L 324.729868 350.420562 L 323.970145 349.124656 L 322.563251 348.617562 L 323.313595 347.481297 L 319.411809 347.518859 L 318.389466 348.683297 L 318.089329 350.373609 L 317.320227 350.645938 L 316.673055 355.106484 L 316.916917 357.839156 L 318.661465 362.478125 L 318.47388 363.698906 L 318.86781 364.853953 L 319.833877 365.267141 L 319.777601 367.286125 L 317.929881 368.037375 L 315.622575 366.797812 L 313.371544 363.135469 L 312.030306 357.989406 L 311.186169 357.313281 L 310.735963 348.899281 L 310.717205 347.565812 L 309.891827 345.452922 L 310.463964 344.701672 L 308.953898 343.837734 L 310.370171 342.663906 L 309.835551 341.433734 L 308.091003 340.748219 L 308.578726 338.701062 L 309.751138 338.344219 L 310.745343 336.56 L 308.344244 336.56 L 307.500107 335.592766 L 307.087418 334.963594 L 306.684109 331.094656 L 304.592527 327.807937 L 304.02039 323.619719 L 302.491565 323.131406 L 302.641634 322.258078 L 301.516119 321.149984 L 299.621502 320.774359 L 299.368261 320.107625 L 300.671982 317.656672 L 298.927434 317.703625 L 298.880537 315.900625 L 297.070334 313.862859 L 297.295437 313.045875 L 295.851026 312.538781 L 295.353923 305.232875 L 296.751438 306.594516 L 298.542883 306.782328 L 298.880537 307.627484 L 299.91226 306.650859 L 299.931018 303.495609 L 299.077503 302.997906 L 295.081924 303.119984 L 294.716132 301.232469 L 295.278889 298.218078 L 296.404404 296.931562 L 298.571021 296.809484 L 300.334328 297.128766 L 301.300395 298.152344 L 302.191428 295.166125 L 302.003842 292.358328 L 304.386182 288.019859 L 302.041359 283.578094 L 302.013221 281.915953 L 303.626459 280.507359 L 302.303979 278.948516 L 306.149489 279.192672 L 305.202181 276.91075 L 305.7368 275.380078 L 306.852936 273.389266 L 307.387556 274.929328 L 308.344244 274.450406 L 308.972656 271.811641 L 308.062865 271.3515 L 308.175416 269.783266 L 309.18838 269.895953 L 309.676103 267.491953 L 308.738174 265.501141 L 307.256246 265.322719 L 307.5939 261.726109 L 306.40273 262.007828 L 305.47418 261.322313 L 305.7368 259.988844 L 307.5939 259.322109 L 305.671145 258.655375 L 305.689904 257.030797 L 304.836388 256.805422 L 306.177627 254.833391 L 306.505902 253.021 L 308.813208 251.912906 L 309.835551 252.260359 L 309.676103 250.673344 L 306.834178 251.565453 L 306.168248 250.945672 L 306.92797 249.189625 L 308.053486 249.771844 L 308.241071 248.569844 L 309.05707 248.898516 L 309.98562 247.846766 L 310.78286 247.865547 L 310.764101 244.832375 L 309.469759 244.184422 L 308.438037 244.663344 L 307.190591 246.353656 L 306.852936 247.978234 L 307.312521 248.541672 L 306.224524 248.748266 L 298.871158 247.349063 L 296.892127 244.776031 L 293.496823 247.226984 L 288.056834 247.349063 L 287.662904 249.424391 L 289.079177 250.401016 L 288.90097 250.851766 L 283.836152 250.541875 L 281.866501 253.415406 L 278.761955 255.368656 L 280.29078 257.969859 L 284.558358 260.364469 L 285.44939 262.430406 L 284.427048 264.374266 L 278.790093 268.177469 L 277.261268 271.041609 L 277.664578 275.135922 L 275.282237 277.089172 L 275.497961 279.652812 L 273.078104 281.634234 L 272.32776 284.902172 L 270.320592 286.583094 L 269.251352 286.517359 L 267.197287 284.582891 L 264.824326 285.813063 L 259.797025 285.521953 L 257.846132 286.414062 L 257.227099 287.766312 L 258.286959 289.644437 L 258.352614 292.414672 L 254.901035 296.537156 L 254.30076 298.189906 L 254.450828 299.870828 L 256.261032 302.75375 L 255.426275 305.599109 L 253.409727 306.134375 L 250.427112 304.387719 L 247.106842 305.0075 L 245.578018 310.519797 L 248.166702 310.979938 L 249.235942 313.440281 L 247.950979 313.712609 L 247.14436 315.111812 L 250.802284 316.764563 L 253.250279 322.220516 L 250.774146 323.78875 L 246.975532 322.323812 L 244.818295 323.610328 L 242.154576 323.957781 L 237.099137 334.371984 L 238.262169 337.733828 L 240.90713 339.593172 L 240.391269 342.757812 L 244.067952 351.190594 L 246.328361 350.955828 L 246.440913 356.195797 L 247.791531 360.815984 L 246.459671 364.093312 L 246.150155 371.089328 L 246.750429 373.793828 L 248.654426 376.657969 L 249.770561 375.484141 L 251.102421 375.540484 L 253.569175 379.043187 L 255.838964 384.170469 L 257.968063 386.734109 L 257.939925 386.837406 L 259.890818 390.772078 L 259.421854 395.796063 L 263.295501 403.383688 L 265.846669 406.801875 L 266.75646 406.914562 L 267.394252 407.355922 L 270.020454 407.891188 L 271.042797 409.769313 L 280.215745 415.826266 L 287.231456 423.949156 L 290.898759 419.892406 L 292.380688 419.892406 L 293.646892 420.371328 L 294.612959 419.751547 L 295.110062 420.089609 L 295.503992 420.568531 L 294.800545 421.441859 L 295.888543 421.920781 L 301.76936 418.164531 L 303.204391 418.671625 L 304.94894 417.131562 L 303.101219 412.624062 L 304.770733 410.464219 L 306.637212 409.928953 L 305.783697 409.337344 L 305.87749 408.022656 L 304.057907 405.693781 L 302.454048 405.937937 L 301.928808 405.430844 L 303.129357 405.402672 L 302.219566 403.317953 L 300.109225 403.214656 L 299.199433 401.158109 L 297.801919 400.989078 L 298.064539 400.5665 L 298.946192 400.604062 L 300.559431 402.510359 L 301.49736 401.608859 L 302.257083 401.984484 L 304.470596 404.144328 L 308.297347 399.542922 L 309.075828 399.167297 L 312.199133 398.472391 L 315.42561 398.810453 L 316.504228 398.359703 L 316.729331 397.214047 L 314.159405 396.387672 L 316.025884 395.101156 L 318.295673 396.725734 L 318.483259 398.077984 L 319.552498 398.838625 L 320.753048 396.293766 L 319.843256 394.941516 L 320.021463 393.870984 L 318.670845 392.997656 L 320.406014 389.570078 L 320.537324 391.119531 L 319.468085 392.546906 L 322.31001 395.364094 L 322.985319 398.725937 L 322.957181 399.317547 L 323.923249 401.683984 L 331.745579 406.585891 L 335.844329 411.271813 L 336.566535 413.03725 L 342.916316 419.488609 L 346.686792 425.151156 L 347.577825 428.785328 L 348.994098 430.776141 L 348.628305 431.508609 L 349.669407 432.804516 L 352.333126 444.495844 L 351.986092 446.852891 L 355.109396 451.491859 L 356.037946 450.806344 L 356.638221 451.125625 L 356.563187 454.618937 L 358.232701 460.628938 L 359.320699 462.638531 L 359.874077 462.863906 L 360.755731 461.915453 L 361.121523 462.751219 L 361.037109 465.399375 L 362.312693 469.615766 L 362.565934 472.132453 L 361.759315 474.029359 L 363.27876 476.536656 L 365.80179 485.373234 L 366.148824 488.828984 L 365.557928 492.613406 L 360.408697 506.774469 L 361.046489 508.276969 L 362.500279 509.741906 L 363.119312 509.629219 L 363.438208 508.877969 L 364.113517 509.770078 L 363.250622 511.056594 L 363.363174 512.437016 L 362.659727 512.521531 L 362.744141 514.812844 L 362.068832 516.099359 L 362.819175 517.198062 L 364.573103 516.644016 L 363.588277 517.874187 L 362.640968 517.583078 L 362.050073 518.306156 L 362.209521 519.010453 L 363.306898 519.818047 L 362.293935 520.578688 L 360.980834 519.958906 L 360.089801 521.498969 L 360.389938 522.203266 L 363.832139 526.288187 L 365.248412 526.936141 L 365.726756 526.034641 L 364.713792 525.330344 L 365.623583 524.926547 L 365.107722 524.043828 L 365.858066 523.658812 L 366.495858 524.22225 L 369.319025 524.250422 L 371.710744 523.442828 L 372.920673 511.319531 L 373.586603 509.760687 L 374.805911 514.268187 L 374.487015 514.784672 L 373.408396 516.606453 L 374.008671 522.541328 L 372.883156 525.687187 L 371.570055 527.011266 L 371.063573 526.907969 L 369.853644 528.194484 L 369.365921 527.893984 L 369.412818 529.124156 L 375.631289 537.566328 L 378.491973 544.487219 L 378.651421 556.479047 L 391.304087 572.367984 L 392.973601 578.293469 L 395.355941 583.364406 L 399.942415 590.351031 L 403.384615 598.267328 L 405.541853 600.183016 L 406.160886 598.596 L 404.003649 590.163219 L 402.099652 585.486688 L 399.520347 582.810359 L 398.563659 579.335828 L 398.657452 576.481078 L 397.569454 570.912438 L 398.770003 568.076469 L 395.309044 563.953984 L 395.018286 561.399734 L 395.290286 560.817516 L 393.367531 560.075656 L 391.754293 556.760766 L 393.451945 552.863656 L 393.967806 553.211109 L 395.430975 551.361156 L 393.142428 545.426281 L 392.626567 542.111391 L 395.76863 539.266031 L 398.000901 538.608687 L 397.907109 535.650641 L 399.070141 534.843047 L 399.323382 532.100984 L 401.142964 532.072812 L 402.540479 533.105781 L 404.022407 532.664422 L 406.029576 528.964516 L 408.383778 527.180297 L 410.447223 527.368109 L 413.579906 531.650234 L 414.236457 534.392297 L 413.814389 536.561531 L 414.705422 538.129766 L 420.867617 539.979719 L 421.843063 539.604094 L 421.974373 538.1955 L 423.503198 538.505391 L 425.322781 537.369125 L 426.485813 538.120375 L 427.752018 543.15375 L 429.637255 547.182328 L 429.881117 549.999516 L 431.578769 550.187328 L 433.070076 547.999312 L 437.150069 545.276031 Z M 285.533804 468.263516 L 285.036702 471.644141 L 288.11311 468.986594 L 287.672283 467.540437 Z M 305.333491 429.292422 L 306.637212 430.963953 L 307.612659 430.973344 L 307.762728 430.325391 L 306.14011 428.616297 Z M 293.665651 422.775328 L 294.20027 420.793906 L 293.834478 420.634266 L 292.596411 420.577922 L 292.146205 420.192906 L 291.03007 420.192906 L 288.835315 422.333969 L 287.831731 424.662844 L 287.747317 427.742969 L 288.694626 427.771141 L 292.230619 423.648656 Z M 295.757233 441.537797 L 294.425373 437.293234 L 292.48386 435.27425 L 292.35255 433.696625 L 286.696836 431.095422 L 286.800009 437.2275 L 286.180975 440.946188 L 286.51863 449.200547 L 284.980426 455.154203 L 281.444433 462.666703 L 282.072845 463.953219 L 285.561942 466.300875 L 289.801382 462.394375 L 292.868411 460.967 L 293.046617 459.426938 L 293.618754 459.595969 L 294.744269 457.623938 L 295.775992 457.0605 L 295.991715 454.797359 L 296.638887 454.750406 L 298.308401 449.660687 L 298.083298 445.378562 Z M 296.751438 422.362141 L 298.805503 423.291812 L 299.021227 421.826875 L 297.980125 421.629672 Z M 294.20027 423.592312 L 291.470896 427.0105 L 293.787582 427.066844 L 296.713921 425.442266 L 298.430331 423.564141 L 296.685783 422.503 Z M 294.20027 423.592312 " transform="matrix(0.416476,0,0,0.415973,0,0)"/>
<path style="fill-rule:nonzero;fill:rgb(80%,80%,80%);fill-opacity:1;stroke-width:0.5;stroke-linecap:butt;stroke-linejoin:miter;stroke:rgb(100%,100%,100%);stroke-opacity:1;stroke-miterlimit:4;" d="M 236.451966 363.633172 L 238.534169 364.731875 L 238.477893 366.055953 L 237.45555 366.300109 L 238.25279 367.154656 L 236.53638 367.229781 L 234.079005 368.215797 L 234.379142 367.013797 L 235.842312 364.731875 Z M 300.634465 233.826562 L 301.919428 234.080109 L 304.067286 232.624562 L 302.454048 229.854328 L 301.478601 230.060922 L 300.653224 229.422359 L 300.484396 228.070109 L 302.547841 228.135844 L 302.847978 227.300078 L 301.506739 222.52025 L 300.090466 222.435734 L 300.897085 223.778594 L 299.274468 223.158812 L 297.633092 225.412562 L 297.464264 223.900672 L 298.477228 223.365406 L 295.991715 222.689281 L 294.959993 223.468703 L 294.331581 223.149422 L 296.32937 220.71725 L 297.098472 222.154016 L 297.78316 221.515453 L 300.268673 218.538625 L 302.153911 213.956 L 298.786745 212.181172 L 299.433916 211.270281 L 299.133778 210.030719 L 296.976541 209.166781 L 296.742059 207.692453 L 298.524124 208.593953 L 298.524124 207.730016 L 299.405778 207.748797 L 299.602743 206.058484 L 301.019016 206.030312 L 301.844394 205.147594 L 300.822051 203.654484 L 302.613496 203.344594 L 302.669772 201.766969 L 300.822051 200.959375 L 301.656808 199.973359 L 301.197223 198.358172 L 299.659019 199.907625 L 297.201644 198.339391 L 295.503992 199.203328 L 295.147579 198.461469 L 293.534341 198.442688 L 294.547304 197.672656 L 294.153374 196.311016 L 294.838062 196.667859 L 295.222613 195.926 L 294.528546 195.982344 L 294.556684 195.249875 L 293.356134 195.099625 L 293.177928 194.508016 L 294.097098 193.888234 L 295.475854 194.179344 L 295.363303 193.249672 L 296.657645 192.32 L 295.26951 191.484234 L 296.676404 189.221094 L 296.507576 187.342969 L 294.969372 186.432078 L 293.956409 187.831281 L 294.247167 188.638875 L 292.924687 189.681234 L 294.172133 191.193125 L 292.680825 191.409109 L 291.170759 189.052063 L 291.761654 187.06125 L 292.587032 186.413297 L 292.193102 185.605703 L 291.208276 185.568141 L 290.064002 181.746156 L 287.944282 180.112188 L 284.483323 179.567531 L 283.226498 181.830672 L 282.326086 181.624078 L 281.894639 180.544156 L 280.590917 180.938562 L 279.512298 178.750547 L 276.154512 178.666031 L 276.04196 176.121172 L 275.413547 176.168125 L 277.36444 175.304187 L 277.730233 174.045844 L 276.679752 172.618469 L 275.11341 172.233453 L 275.451065 169.228453 L 274.203619 167.547531 L 274.71948 166.692984 L 277.073682 165.697578 L 274.137964 164.843031 L 273.940998 161.462406 L 275.319754 161.133734 L 276.501545 162.185484 L 278.002232 161.706562 L 277.739612 159.847219 L 275.77934 158.044219 L 276.379615 156.907953 L 276.126374 154.034422 L 277.76775 153.311344 L 277.251889 151.855797 L 273.631482 152.710344 L 269.485834 152.325328 L 266.484461 153.198656 L 263.323639 152.156297 L 262.441986 151.564687 L 260.087783 150.296953 L 258.624614 151.029422 L 258.127511 152.118734 L 256.439238 152.898156 L 255.773309 153.339516 L 253.963105 152.090563 L 252.509315 153.245609 L 250.942973 152.118734 L 249.573596 152.081172 L 248.823253 150.127922 L 247.256911 150.503547 L 247.313187 151.386266 L 245.165329 151.489563 L 244.255537 150.869781 L 241.132233 151.658594 L 234.9419 151.217234 L 234.848107 151.761891 L 229.586324 153.574281 L 228.911015 154.372484 L 225.356263 152.766687 L 222.092269 152.325328 L 218.528138 149.320328 L 216.333383 149.724125 L 209.148845 147.949297 L 207.948296 148.29675 L 202.920995 146.183859 L 197.330937 145.883359 L 192.144188 142.174062 L 189.761848 141.751484 L 187.323231 140.164469 L 185.231649 140.173859 L 183.852893 138.042187 L 182.183379 138.802828 L 181.733173 137.938891 L 180.617037 138.286344 L 178.225318 137.459969 L 175.439668 139.685547 L 171.022021 138.802828 L 172.250708 137.300328 L 171.134572 136.333094 L 171.265883 134.830594 L 169.924644 132.614406 L 169.849609 129.553062 L 170.618711 126.651359 L 165.263135 124.998609 L 165.319411 125.139469 L 165.666445 126.435375 L 166.566857 127.026984 L 166.285478 129.177437 L 164.662861 130.069547 L 163.546725 130.031984 L 163.302863 130.144672 L 160.864247 132.595625 L 163.828104 139.88275 L 163.199691 142.390047 L 163.199691 142.709328 L 163.790586 144.174266 L 162.833899 145.404438 L 162.618175 145.479562 L 158.791423 145.845797 L 156.343428 150.315734 L 156.287152 151.949703 L 154.176811 154.832625 L 154.32688 157.931531 L 154.270604 158.203859 L 153.126331 160.260406 L 153.79226 161.312156 L 154.120536 161.556312 L 154.448811 161.396672 L 154.551983 161.565703 L 154.777086 164.082391 L 154.073639 165.059016 L 155.152258 170.214469 L 155.349223 170.796687 L 156.699841 173.501187 L 156.671703 174.581109 L 156.202739 176.938156 L 157.328254 178.694203 L 157.159427 178.825672 L 156.70922 178.844453 L 156.108946 179.210688 L 155.020948 179.952547 L 155.058465 180.525375 L 157.150047 186.056453 L 159.175974 188.122391 L 161.680246 189.418297 L 162.740106 189.286828 L 163.002726 189.869047 L 161.520798 190.06625 L 160.676661 191.183734 L 160.526593 191.953766 L 161.820935 192.949172 L 162.102314 193.07125 L 162.702588 191.963156 L 164.184517 193.174547 L 165.375687 192.122797 L 166.332375 192.996125 L 166.426168 195.127797 L 167.05458 195.550375 L 167.279683 195.897828 L 166.913891 196.883844 L 165.919686 197.494234 L 167.570441 199.306625 L 167.570441 200.687047 L 168.058164 201.100234 L 168.048785 202.274062 L 166.866994 203.062875 L 166.913891 207.157187 L 164.972377 208.049297 L 164.944239 208.687859 L 166.341754 213.129625 L 166.097892 213.561594 L 165.441342 213.946609 L 165.19748 214.247109 L 165.19748 215.158 L 165.06617 215.449109 L 162.890174 216.491469 L 162.824519 218.163 L 162.608796 218.332031 L 162.196107 218.125438 L 161.652108 218.454109 L 162.046038 219.036328 L 162.862036 219.289875 L 163.21845 219.430734 L 163.668656 220.689078 L 162.758864 222.557812 L 162.908933 222.839531 L 163.584242 222.567203 L 163.678035 222.764406 L 162.224245 223.891281 L 162.158589 225.0745 L 160.545351 226.041734 L 161.192522 227.037141 L 161.961624 230.164219 L 162.505623 230.389594 L 163.734311 230.107875 L 164.437758 233.573016 L 162.824519 236.286906 L 164.719136 238.14625 L 164.916101 238.634562 L 164.962998 240.390609 L 166.107272 242.296906 L 166.25734 242.888516 L 165.703962 246.888922 L 165.750859 247.668344 L 167.176511 254.213609 L 167.035822 254.37325 L 165.86341 254.636187 L 165.516376 255.086938 L 165.929065 255.791234 L 166.229202 256.016609 L 167.814303 255.791234 L 168.217612 257.07775 L 169.361886 257.782047 L 169.05237 260.674359 L 169.633886 264.177062 L 168.78037 265.829813 L 164.80355 269.078969 L 164.418999 269.116531 L 163.462311 268.900547 L 162.852657 269.013234 L 158.56632 272.318734 L 157.769081 278.835828 L 157.928529 279.136328 L 158.660113 279.126937 L 159.072802 279.737328 L 159.213492 281.709359 L 159.354181 282.056812 L 158.669493 285.02425 L 158.819561 285.183891 L 159.50425 283.841031 L 162.243003 288.7805 L 161.258177 289.315766 L 160.113904 289.606875 L 159.054044 291.109375 L 157.844115 291.043641 L 156.559152 291.503781 L 155.583705 291.578906 L 151.438058 291.344141 L 151.100404 291.663422 L 148.455443 291.466219 L 147.207997 292.264422 L 146.701515 292.311375 L 145.416552 292.198688 L 144.769381 291.315969 L 141.786766 291.156328 L 140.445527 290.386297 L 128.580722 281.155312 L 127.511483 281.437031 L 127.586517 282.864406 L 127.239483 283.211859 L 126.845553 282.592078 L 126.62045 284.057016 L 127.277 285.437437 L 124.819626 289.757125 L 123.675352 293.156531 L 124.116179 294.114375 L 123.637835 294.931359 L 122.484182 295.091 L 122.315355 295.626266 L 123.356456 295.898594 L 122.756181 297.729766 L 120.927219 299.14775 L 122.230941 299.814484 L 123.534663 302.622281 L 126.123347 305.843266 L 128.430653 306.397312 L 131.516441 304.838469 L 134.236435 307.317594 L 134.527194 308.876438 L 138.869806 310.087828 L 139.066771 311.130187 L 137.256568 313.064656 L 138.851047 313.656266 L 140.070355 315.07425 L 140.783182 318.088641 L 143.362487 319.290641 L 140.248562 320.502031 L 138.963599 322.943594 L 142.809109 322.051484 L 146.992273 324.070469 L 149.796682 326.324219 L 149.740406 331.197953 L 150.978473 334.465891 L 150.640818 334.897859 L 148.643029 334.390766 L 149.280821 339.095469 L 150.359439 342.025344 L 152.282194 343.602969 L 153.163848 345.969406 L 151.203576 349.800781 L 156.896806 349.340641 L 156.512255 351.256328 L 157.309495 353.002984 L 156.549772 355.416375 L 157.994184 357.322672 L 161.745901 354.899891 L 163.968793 354.899891 L 164.606585 355.500891 L 164.13762 356.186406 L 160.901764 356.881312 L 160.836109 357.623172 L 162.496244 359.501297 L 162.327417 360.825375 L 159.560525 361.360641 L 158.463148 362.384219 L 157.150047 361.229172 L 156.934323 359.717281 L 156.062049 360.731469 L 156.249635 361.980422 L 158.191149 364.196609 L 160.911144 365.370437 L 160.639144 366.253156 L 161.88659 367.173437 L 161.070592 369.042172 L 163.07776 369.906109 L 163.931276 373.502719 L 167.18589 374.901922 L 166.857615 376.460766 L 168.695956 376.404422 L 169.352507 377.052375 L 168.283268 379.747484 L 171.078297 380.423609 L 172.306984 382.367469 L 174.276635 383.757281 L 174.192222 384.367672 L 172.766569 384.067172 L 173.198017 385.241 L 172.775949 385.522719 L 171.56602 384.996844 L 170.299815 385.372469 L 170.309195 386.367875 L 169.408783 386.048594 L 170.478022 387.832812 L 172.23195 389.203844 L 174.529876 388.621625 L 176.124356 389.663984 L 178.262835 389.776672 L 179.482143 388.922125 L 180.551382 391.645406 L 181.611242 390.969281 L 180.701451 387.203641 L 183.036895 388.302344 L 188.082954 386.752891 L 189.705572 380.470562 L 191.965981 379.954078 L 192.106671 376.488937 L 193.166531 376.432594 L 195.586388 372.9205 L 198.259487 372.77025 L 199.047347 369.549266 L 199.778932 368.873141 L 199.037968 368.281531 L 200.669965 367.802609 L 201.636032 366.384625 L 204.44982 367.502109 L 206.616436 366.037172 L 208.445398 368.375437 L 208.042089 371.943875 L 208.548571 372.422797 L 207.648158 374.291531 L 208.529812 376.498328 L 209.2145 375.484141 L 210.80898 375.493531 L 210.246223 376.329297 L 210.621394 376.97725 L 212.253391 375.418406 L 213.294493 376.047578 L 216.943037 375.756469 L 217.16814 373.174047 L 215.620557 370.122094 L 216.492831 367.736875 L 221.313788 367.539672 L 226.153503 369.126688 L 226.359847 369.812203 L 225.187436 370.901516 L 222.701923 371.446172 L 226.416123 372.197422 L 231.809216 370.544672 L 233.319282 368.882531 L 233.61004 367.192219 L 235.936105 363.548656 L 238.459135 362.403 L 238.449755 362.928875 L 239.612788 363.867937 L 241.83568 356.195797 L 241.422991 355.294297 L 241.985749 355.266125 L 243.130022 352.467719 L 243.270712 352.298687 L 243.927262 351.143641 L 240.250579 342.710859 L 240.766441 339.536828 L 238.12148 337.677484 L 236.958448 334.315641 L 242.013887 323.910828 L 244.677606 323.563375 L 246.844222 322.267469 L 250.633456 323.741797 L 253.10959 322.173563 L 250.661594 316.708219 L 247.00367 315.055469 L 247.810289 313.656266 L 249.104632 313.393328 L 248.026013 310.932984 L 245.437328 310.472844 L 246.966153 304.960547 L 250.286423 304.340766 L 253.269038 306.078031 L 255.285586 305.552156 L 256.120343 302.697406 L 254.310139 299.833266 L 254.16007 298.152344 L 254.760345 296.499594 L 258.221304 292.367719 L 258.155649 289.597484 L 257.095789 287.72875 L 257.724202 286.367109 L 259.665715 285.484391 L 264.693016 285.7755 L 267.065977 284.545328 L 269.120042 286.489188 L 270.189281 286.545531 L 272.19645 284.874 L 272.946793 281.596672 L 275.366651 279.634031 L 275.150927 277.070391 L 277.533268 275.117141 L 277.129958 271.022828 L 278.658783 268.158687 L 284.295737 264.346094 L 285.31808 262.421016 L 284.427048 260.345687 L 280.159469 257.960469 L 278.640024 255.359266 L 281.753949 253.406016 L 283.723601 250.532484 L 288.779039 250.842375 L 288.957246 250.391625 L 287.540973 249.405609 L 287.944282 247.339672 L 293.384272 247.226984 L 296.770197 244.776031 L 298.655434 242.118484 L 297.961367 241.780422 L 295.1382 242.804 L 296.357508 239.066531 L 302.257083 239.34825 L 302.416531 237.84575 L 300.287431 234.746844 Z M 300.634465 233.826562 " transform="matrix(0.416476,0,0,0.415973,0,0)"/>
<path style="fill-rule:nonzero;fill:rgb(80%,80%,80%);fill-opacity:1;stroke-width:0.5;stroke-linecap:butt;stroke-linejoin:miter;stroke:rgb(100%,100%,100%);stroke-opacity:1;stroke-miterlimit:4;" d="M 131.310096 421.319781 L 132.135474 422.193109 L 133.157817 422.258844 L 132.304301 422.831672 L 133.129679 425.827281 L 133.486092 431.8185 L 134.686641 432.738781 L 134.508435 436.523203 L 133.307885 438.166562 L 137.144016 443.265672 L 137.237809 443.885453 L 138.804151 447.331813 L 138.963599 447.500844 L 137.237809 450.909641 L 141.092698 463.756016 L 141.768007 464.403969 L 142.734075 465.671703 L 142.677799 468.150828 L 140.40801 472.442344 L 142.546489 474.761828 L 147.339307 461.521047 L 143.249936 453.820734 L 146.223171 450.440109 L 146.251309 448.815531 L 146.37324 448.637109 L 146.804688 449.970578 L 147.498755 449.707641 L 147.142342 446.157984 L 149.430889 443.218719 L 151.250472 439.161969 L 150.312543 434.654469 L 147.601927 429.583531 L 147.132963 423.592312 L 145.566621 418.14575 L 142.274489 413.863625 L 141.936835 413.431656 L 141.289663 410.952531 L 139.151185 409.337344 L 137.960015 409.13075 L 137.181533 409.365516 L 135.662088 409.149531 L 135.812157 411.243641 L 130.522236 415.929562 L 132.726369 418.624672 L 132.679473 419.742156 Z M 143.578211 486.340469 L 143.249936 478.611984 L 143.793935 478.010984 L 145.960551 480.621578 Z M 112.204477 497.064562 L 110.647515 496.153672 L 109.765861 492.885734 L 111.172755 491.477141 L 116.087504 492.5195 L 117.494398 490.847969 L 118.197845 492.510109 L 119.238947 494.388234 L 118.150949 494.838984 L 119.304602 495.008016 L 119.670394 498.792438 L 117.006675 498.059969 L 113.179924 499.139891 Z M 123.544042 485.692516 L 126.526657 484.077328 L 125.917003 481.429172 L 124.313144 477.926469 L 121.44308 474.395594 L 121.339908 474.132656 L 118.638672 468.188391 L 120.298807 465.493281 L 117.166123 465.934641 L 116.200056 464.676297 L 114.624335 464.42275 L 113.798957 464.704469 L 115.937436 466.601375 L 116.378262 468.366812 L 113.170544 473.268719 L 115.337161 474.386203 L 116.200056 475.84175 L 115.515367 476.968625 L 112.373304 478.912484 L 114.68061 479.945453 L 117.119226 482.499703 L 118.807499 482.067734 L 120.214393 482.950453 L 120.242531 484.678328 L 118.65743 486.65975 L 119.304602 489.796219 L 120.148738 490.012203 L 119.032602 490.678937 L 120.561427 492.36925 L 121.893286 487.730281 Z M 106.361178 498.98025 L 106.548764 500.745687 L 105.423249 502.107328 L 102.834564 502.079156 L 99.289191 497.17725 L 96.831817 495.439984 L 98.351262 488.744469 L 97.685332 486.462547 L 95.809474 484.509297 L 95.753198 482.978625 L 95.978301 482.161641 L 97.272643 481.814188 L 98.201193 482.133469 L 98.360641 485.401406 L 100.602292 488.415797 L 99.861328 492.153266 L 100.733602 494.557266 L 105.113732 497.196031 L 105.151249 498.097531 Z M 118.010259 504.511328 L 120.345703 505.610031 L 118.816878 507.450594 L 116.912882 507.300344 L 117.419364 507.920125 L 117.006675 508.436609 L 112.589028 509.122125 L 112.129443 507.610234 L 113.667647 504.295344 L 114.15537 504.464375 L 115.768608 505.29075 L 116.828468 504.971469 Z M 105.845317 478.273922 L 108.696622 474.508281 L 108.133864 472.029156 L 109.071793 471.916469 L 110.037861 471.954031 L 111.069583 473.897891 L 115.384057 475.569422 L 111.77303 477.917078 L 112.335787 480.443156 L 113.386268 481.297703 L 115.280885 481.213188 L 115.796746 482.706297 L 116.753434 483.288516 L 119.45467 483.551453 L 117.972742 485.711297 L 117.822673 485.9085 L 118.40419 488.594219 L 116.003091 491.965453 L 110.891376 490.876141 L 112.438959 482.358844 L 109.728344 481.598203 L 109.268759 481.570031 L 107.711796 481.710891 L 105.986006 480.377422 Z M 124.209972 455.905453 L 124.547626 458.337625 L 123.665973 460.967 L 125.588728 460.412953 L 125.523073 462.197172 L 127.839758 464.159812 L 128.524446 461.981187 L 130.709821 461.060906 L 130.709821 460.638328 L 130.822373 458.253109 L 133.77685 456.966594 L 135.90595 459.295469 L 136.937672 457.727234 L 135.643329 454.393562 L 135.50264 452.10225 L 135.587054 449.332016 L 132.013543 450.881469 L 131.825957 451.153797 L 130.953683 449.707641 L 131.244441 448.580766 L 128.880859 447.4445 L 127.839758 448.439906 L 126.826794 447.228516 L 125.054108 448.627719 L 126.020175 448.890656 L 126.21714 449.576172 L 125.4199 450.374375 L 125.082246 452.299453 L 123.787904 452.712641 L 123.909834 454.149406 L 123.103215 454.994562 Z M 140.201666 465.258516 L 138.363324 464.676297 L 137.172154 463.061109 L 136.947051 459.990375 L 137.697394 459.699266 L 138.785392 460.694672 L 139.516977 463.061109 Z M 117.447502 498.332297 L 119.351498 499.111719 L 119.820463 501.130703 L 119.041981 503.656781 L 117.841432 503.9385 L 117.46626 504.004234 L 115.899918 504.962078 L 113.714543 503.741297 L 113.311234 499.534297 Z M 134.883607 466.995781 L 138.926082 465.127047 L 140.698768 466.404172 L 136.862637 469.324656 L 134.7054 467.718859 Z M 161.023695 485.176031 L 162.439968 489.298516 L 162.205486 490.359656 L 160.545351 490.941875 L 158.463148 490.509906 L 158.219287 489.852562 L 155.621223 490.378437 L 155.377361 486.979031 L 154.373777 485.542266 L 156.324669 483.560844 L 157.665908 479.767031 L 157.046875 474.883906 L 158.012942 473.503484 L 158.406872 473.926063 L 158.688251 475.437953 L 159.382319 476.245547 L 160.339007 476.433359 L 159.36356 478.24575 L 160.873626 481.194406 L 159.391698 483.861344 Z M 173.601326 478.001594 L 174.886289 483.081922 L 173.882705 485.777031 L 172.316363 486.847562 L 171.631675 486.039969 L 171.106435 486.349859 L 171.181469 488.904109 L 166.763822 489.852562 L 165.610169 490.979437 L 164.644102 490.500516 L 165.056791 488.9135 L 162.871416 488.594219 L 161.642728 485.100906 L 159.832525 483.579625 L 161.295695 482.086516 L 160.761075 480.001797 L 159.738732 478.086109 L 161.023695 477.212781 L 160.545351 475.992 L 159.832525 475.822969 L 159.025906 475.428562 L 158.960251 473.390797 L 158.116114 473.146641 L 158.725768 470.620563 L 156.259014 468.883297 L 159.260388 466.742234 L 159.50425 461.145422 L 162.749485 460.638328 L 163.47169 460.704062 L 164.334585 462.178391 L 165.244377 465.286687 L 169.887127 468.902078 L 170.290436 469.071109 L 171.387813 469.052328 L 173.15112 471.522063 Z M 151.982057 486.640969 L 152.141505 485.532875 L 153.323296 484.678328 L 154.702052 487.335875 L 153.679709 488.566047 Z M 178.122145 426.700609 L 176.07746 426.099609 L 175.477185 424.822484 L 176.152494 423.216687 L 178.638007 423.169734 L 183.008757 424.343562 L 182.97124 423.010094 L 178.919385 422.747156 L 181.808207 419.075422 L 182.858688 414.859031 L 181.91138 413.807281 L 178.59111 413.328359 L 179.416488 409.393687 L 176.190011 407.62825 L 177.015389 405.909766 L 178.375386 407.431047 L 179.25704 407.017859 L 180.551382 405.862812 L 179.78228 404.961312 L 177.437457 404.163109 L 174.586152 404.698375 L 173.676361 403.843828 L 177.746974 400.913953 L 179.941728 401.402266 L 180.223107 398.416047 L 178.32849 398.547516 L 178.450421 397.148312 L 177.559388 396.246812 L 180.945312 395.645812 L 180.466969 394.077578 L 178.638007 393.861594 L 180.551382 391.636016 L 179.491522 388.912734 L 178.272214 389.767281 L 176.133735 389.654594 L 174.539256 388.612234 L 172.241329 389.194453 L 170.487401 387.823422 L 169.427541 386.039203 L 170.327953 386.358484 L 170.318574 385.372469 L 171.594158 384.996844 L 172.578984 385.353687 L 173.010431 385.071969 L 172.578984 383.898141 L 174.004636 384.198641 L 174.08905 383.58825 L 172.119398 382.198438 L 170.890711 380.254578 L 168.086302 379.578453 L 169.155542 376.883344 L 168.508371 376.226 L 166.670029 376.291734 L 166.998304 374.732891 L 163.74369 373.333687 L 162.890174 369.737078 L 160.883006 368.873141 L 161.699004 367.004406 L 160.451558 366.084125 L 160.723558 365.210797 L 158.003563 364.036969 L 156.071429 361.820781 L 155.883843 360.571828 L 156.756117 359.557641 L 156.98122 361.078922 L 158.294321 362.233969 L 159.391698 361.210391 L 162.158589 360.684516 L 162.327417 359.351047 L 160.667282 357.472922 L 160.732937 356.731063 L 163.968793 356.036156 L 164.437758 355.350641 L 163.809345 354.749641 L 161.586453 354.749641 L 157.825356 357.172422 L 156.390325 355.275516 L 157.150047 352.871516 L 156.352807 351.13425 L 156.737358 349.209172 L 151.044128 349.669312 L 153.0044 345.837938 L 152.122746 343.4715 L 150.199991 341.903266 L 149.121373 338.973391 L 148.483581 334.259297 L 150.48137 334.766391 L 150.819025 334.343813 L 149.580958 331.066484 L 149.637234 326.19275 L 146.832825 323.939 L 142.649661 321.920016 L 138.81353 322.821516 L 140.107873 320.379953 L 143.221798 319.168563 L 140.642492 317.966563 L 139.929666 314.952172 L 138.710358 313.552969 L 137.115878 312.951969 L 138.926082 311.0175 L 138.729117 309.984531 L 134.386504 308.773141 L 134.095746 307.214297 L 131.375751 304.725781 L 128.289964 306.294016 L 125.982658 305.730578 L 123.393973 302.509594 L 121.996459 299.692406 L 120.702116 299.025672 L 122.531078 297.607687 L 123.131353 295.776516 L 122.090252 295.513578 L 122.2497 294.968922 L 123.412732 294.809281 L 123.891076 293.992297 L 123.459628 293.043844 L 124.603902 289.644437 L 127.061277 285.315359 L 126.395347 283.953719 L 126.629829 282.479391 L 127.023759 283.099172 L 127.380173 282.751719 L 127.295759 281.333734 L 123.544042 278.629234 L 123.093836 278.169094 L 122.024596 276.366094 L 116.837848 274.262594 L 116.068746 274.065391 L 115.402816 275.276781 L 114.605576 277.859203 L 112.654683 279.136328 L 111.716754 278.751312 L 110.366136 274.760297 L 110.094136 274.750906 L 109.165586 276.356703 L 108.152623 276.826234 L 104.222699 275.464594 L 101.906014 275.483375 L 101.652773 274.290766 L 98.64202 273.239016 L 96.794299 267.275969 L 96.494162 266.844 L 94.374442 260.345687 L 93.73665 259.387844 L 88.56866 258.843187 L 87.762041 258.636594 L 86.983559 258.232797 L 85.332804 259.049781 L 85.51101 257.969859 L 85.407838 257.922906 L 84.488668 258.204625 L 84.272944 258.383047 L 84.46053 259.509922 L 84.338599 259.650781 L 81.299708 260.871562 L 81.083984 260.862172 L 81.740535 259.528703 L 81.581087 259.359672 L 80.296124 259.866766 L 79.892814 259.801031 L 72.78331 257.340688 L 69.838213 254.326297 L 67.690355 250.231984 L 67.605941 251.490328 L 66.227185 251.199219 L 65.645669 253.603219 L 64.56705 254.692531 L 65.570634 259.500531 L 64.116844 260.063969 L 64.613947 261.951484 L 67.005666 261.848187 L 66.705529 264.918922 L 68.140561 265.566875 L 66.799322 266.280562 L 67.943595 266.890953 L 68.290629 268.111734 L 68.159319 270.243406 L 67.174493 272.196656 L 70.128971 270.806844 L 71.282624 273.201453 L 68.534491 273.210844 L 67.906078 273.868187 L 68.600146 278.178484 L 67.727872 278.807656 L 67.596562 280.51675 L 64.83905 280.526141 L 64.998498 281.962906 L 63.90112 281.878391 L 63.272708 282.967703 L 61.537539 283.493578 L 60.759057 285.108766 L 58.020304 285.747328 L 56.951065 284.348125 L 55.619205 285.493781 L 54.437414 284.845828 L 53.011762 285.972703 L 52.974245 286.517359 L 54.034105 286.892984 L 54.09976 288.545734 L 55.42224 290.339344 L 54.005967 290.808875 L 54.521828 291.982703 L 53.555761 292.452234 L 53.405692 293.278609 L 51.436041 293.673016 L 53.274382 295.579313 L 51.895626 300.725375 L 52.796038 305.523984 L 51.661144 308.134578 L 54.540586 308.688625 L 54.353001 310.895422 L 53.461968 312.332187 L 55.15962 312.050469 L 55.459757 312.604516 L 59.455336 311.590328 L 58.883199 313.092828 L 59.79299 314.013109 L 60.796575 317.234094 L 63.150777 318.623906 L 64.191878 320.802531 L 67.193252 321.732203 L 68.647042 324.530609 L 69.781937 324.802937 L 70.222764 323.985953 L 71.235727 324.633906 L 71.216969 323.413125 L 72.079863 322.812125 L 73.871308 323.093844 L 73.98386 324.887453 L 72.933379 326.136406 L 73.167861 328.531016 L 71.948553 329.094453 L 70.757383 328.390156 L 70.016419 330.812937 L 70.26966 332.137016 L 69.60373 333.799156 L 70.476004 336.616344 L 67.793527 338.193969 L 68.956559 341.893875 L 68.393802 342.213156 L 67.174493 341.180187 L 66.780563 342.983187 L 65.551876 342.006562 L 64.398223 343.236734 L 66.874356 345.960016 L 66.55546 347.6785 L 69.069111 349.227953 L 71.048141 349.021359 L 72.501932 351.153031 L 73.72124 351.444141 L 75.353237 351.340844 L 74.7811 348.617562 L 74.865513 347.969609 L 75.70027 347.847531 L 76.919578 348.486094 L 77.55737 349.181 L 78.973644 350.53325 L 84.657495 349.979203 L 85.192115 352.176609 L 86.092527 351.744641 L 88.249764 352.758828 L 90.857207 350.777406 L 92.27348 351.763422 L 91.598171 352.308078 L 91.072931 354.909281 L 89.825485 353.810578 L 89.159555 354.035953 L 88.456108 355.472719 L 86.946042 356.139453 L 86.336388 359.238359 L 85.529769 359.153844 L 85.360942 360.506094 L 84.160392 360.966234 L 83.166187 362.543859 L 80.558744 363.633172 L 80.267986 366.3095 L 81.468535 369.286328 L 80.924536 372.835984 L 78.420265 373.033187 L 80.408675 374.329094 L 80.48371 376.441984 L 79.799021 377.822406 L 82.978601 378.291937 L 83.119291 380.686547 L 84.704391 381.512922 L 83.719566 382.996641 L 84.282323 385.682359 L 86.458319 386.640203 L 87.724524 385.682359 L 89.741071 389.213234 L 88.887556 394.086969 L 87.058594 394.866391 L 85.351562 397.007453 L 85.239011 399.824641 L 88.971969 404.538734 L 87.837075 407.656422 L 86.402043 409.102578 L 86.833491 411.769516 L 88.512384 411.403281 L 89.206452 412.023062 L 87.227421 414.577313 L 87.293076 417.516578 L 89.281486 418.765531 L 90.941621 424.766141 L 92.789342 426.728781 L 92.01086 429.114 L 92.995686 430.917 L 90.42576 433.048672 L 92.54548 435.189734 L 91.35431 436.438687 L 91.992102 437.434094 L 91.466861 441.293641 L 92.986307 441.556578 L 95.265475 444.373766 L 92.798721 444.401937 L 92.526721 445.463078 L 94.721476 446.881062 L 94.40258 448.421125 L 96.147128 448.092453 L 96.972506 451.219531 L 99.645604 454.036719 L 99.936362 454.571984 L 98.998433 456.778781 L 99.43926 458.647516 L 99.861328 459.041922 L 101.634014 457.783578 L 102.281186 458.422141 L 102.149876 459.445719 L 97.225747 464.366406 L 97.910435 467.521656 L 100.733602 468.498281 L 99.101605 468.564016 L 101.211946 472.216969 L 101.240084 472.742844 L 101.868497 480.152047 L 101.29636 479.391406 L 100.602292 481.457344 L 100.2365 483.589016 L 102.149876 486.950859 L 102.450013 492.021797 L 102.0936 492.857562 L 107.205314 494.801422 L 108.602829 493.862359 L 109.550137 490.359656 L 110.187929 486.603406 L 111.688616 483.006797 L 106.389316 482.527875 L 105.048077 479.278719 L 105.648352 476.959234 L 108.040071 474.752437 L 106.483109 470.216766 L 107.149038 468.695484 L 108.968621 467.8785 L 107.13028 470.291891 L 108.011933 471.353031 L 110.328619 471.662922 L 112.016891 473.8885 L 115.787367 468.357422 L 114.980748 466.657719 L 113.001717 465.32425 L 112.110684 462.413156 L 111.857443 461.239328 L 112.739097 460.722844 L 112.204477 459.295469 L 115.421575 457.858703 L 113.62075 453.970984 L 115.440333 452.280672 L 114.905713 450.872078 L 115.402816 449.2475 L 115.909298 446.815328 L 117.241157 445.622719 L 116.246952 447.209734 L 115.890539 451.566984 L 121.283632 451.961391 L 121.499356 450.693656 L 120.439496 448.608937 L 122.033976 450.092656 L 121.658804 452.308844 L 123.253284 454.111844 L 123.487766 452.628125 L 124.669557 451.848703 L 124.913419 450.759391 L 125.95452 449.313234 L 124.416316 448.702844 L 125.448038 447.829516 L 125.635624 447.622922 L 126.47976 446.937406 L 127.708448 447.068875 L 127.94293 447.698047 L 128.768308 446.984359 L 131.403889 448.101844 L 132.782645 445.979562 L 132.032302 444.946594 L 130.812994 443.406531 L 131.797819 441.838297 L 129.818789 440.392141 L 130.259615 439.237094 L 128.590101 438.955375 L 128.561963 436.635891 L 126.836174 436.842484 L 127.183207 434.908016 L 126.170244 432.165953 L 127.342655 428.278234 L 125.926382 428.728984 L 125.016591 427.470641 L 116.847227 428.559953 L 117.006675 427.076234 L 119.482808 426.240469 L 117.878949 425.000906 L 123.384594 422.230672 L 123.43149 423.611094 L 125.654383 424.634672 L 124.791488 426.080828 L 124.988453 426.972938 L 125.917003 426.371938 L 128.862101 427.254656 L 129.471755 426.315594 L 131.825957 426.249859 L 131.825957 424.540766 L 130.737959 422.071031 L 130.737959 421.789312 L 132.172991 418.962734 L 129.152859 415.244047 L 128.533826 412.821266 L 130.381546 411.731953 L 131.009959 409.656625 L 131.347613 409.224656 L 131.619613 409.590891 L 132.379336 411.628656 L 131.356993 414.558531 L 135.540157 411.112172 L 135.530778 408.886594 L 137.162775 409.149531 L 138.372703 408.482797 L 141.571042 410.708375 L 142.124421 411.966719 L 142.433937 412.417469 L 142.743454 412.699187 L 146.63586 418.634062 L 148.727442 426.700609 L 150.415715 422.981922 L 152.488539 422.042859 L 152.094609 420.361938 L 152.61047 418.277219 L 154.495707 418.906391 L 154.823983 418.972125 L 156.990599 416.662031 L 157.815977 417.018875 L 156.652945 418.483812 L 156.971841 418.915781 L 159.729353 418.070625 L 163.490449 420.258641 L 164.981757 421.470031 L 166.510581 422.099203 L 166.641891 423.338766 L 168.011268 424.860047 L 171.650434 424.972734 L 175.364633 429.837078 L 175.449047 431.06725 L 178.487938 429.236078 L 180.682692 428.785328 L 181.489311 427.602109 L 180.420072 426.428281 Z M 131.825957 411.497187 L 130.090788 415.863828 L 129.377962 414.877813 L 128.787066 412.783703 L 130.531615 412.013672 L 131.12251 409.900781 Z M 154.627018 491.956062 L 158.331838 494.914109 L 158.17239 496.998828 L 155.38674 498.736094 L 153.745364 498.783047 L 153.210744 498.200828 L 152.291574 498.482547 L 149.796682 497.703125 L 150.631439 495.5245 L 150.256267 493.984437 L 144.675588 488.678734 L 144.900691 488.124687 L 143.972141 486.5095 L 146.523309 480.518281 L 147.761375 479.457141 L 149.5622 479.316281 L 151.006611 479.607391 L 153.276399 482.997406 L 151.363024 485.767641 L 151.40992 487.833578 Z M 174.801876 429.949766 L 171.050159 425.329578 L 167.523545 425.029078 L 165.582031 422.287016 L 163.143415 420.3995 L 159.588663 418.324172 L 156.831151 419.34775 L 156.230877 418.389906 L 154.8615 419.357141 L 152.985641 419.103594 L 152.666745 420.174125 L 152.919986 422.343359 L 150.75337 423.517187 L 148.417926 427.76175 L 151.062886 432.964156 L 152.188401 438.636094 L 151.606885 441.603531 L 148.267857 446.39275 L 148.793098 448.655891 L 147.930203 451.369781 L 146.710895 452.459094 L 144.760002 452.909844 L 144.553657 453.670484 L 149.496544 461.220547 L 148.502339 465.305469 L 146.438895 468.761219 L 144.056555 477.964031 L 145.923034 479.917281 L 146.654619 479.917281 L 147.329928 478.893703 L 147.817651 479.109688 L 151.363024 479.259937 L 151.625644 479.598 L 154.308122 483.870734 L 155.38674 483.382422 L 156.146463 481.936266 L 157.028116 478.555641 L 156.099566 475.381609 L 158.228666 470.817766 L 156.362187 469.972609 L 155.705636 468.911469 L 156.568531 467.390187 L 157.093771 467.371406 L 158.791423 466.535641 L 159.007147 463.586984 L 159.129078 461.145422 L 157.365771 456.365594 L 157.131289 454.158797 L 157.619012 454.421734 L 158.997768 453.689266 L 159.682456 454.665891 L 159.260388 455.586172 L 157.731563 455.698859 L 157.956666 457.013547 L 159.588663 460.675891 L 162.374313 460.159406 L 163.781207 460.675891 L 164.972377 462.704266 L 165.32879 464.713859 L 167.786165 466.864312 L 168.320785 466.591984 L 169.643265 467.521656 L 171.922433 467.718859 L 174.858152 464.413359 L 175.608495 461.746422 L 174.858152 455.088469 L 173.432499 453.107047 L 171.509744 452.130422 L 171.022021 450.233516 L 172.325743 444.711828 L 176.049322 437.621906 L 176.07746 435.940984 L 174.004636 432.72 Z M 131.366372 443.002734 L 132.501266 441.246688 L 132.285543 439.199531 L 135.530778 442.580156 L 137.528567 446.740203 L 135.934087 448.674672 L 134.958641 448.918828 L 132.107336 450.374375 L 131.713406 449.557391 L 133.289127 446.233109 L 132.660714 444.758781 Z M 120.983495 452.534219 L 122.024596 455.126031 L 118.141569 459.041922 L 117.391226 460.412953 L 117.522536 462.61975 L 116.500193 463.690281 L 113.039234 464.150422 L 112.110684 461.389578 L 113.939646 460.722844 L 112.682821 459.502062 L 115.693574 457.990172 L 113.920888 454.102453 L 115.796746 452.327625 Z M 118.66681 462.375594 L 118.891913 462.807562 L 117.381847 465.080094 L 120.711496 464.244328 L 121.527494 465.239734 L 121.499356 466.554422 L 121.236736 466.873703 L 119.745428 467.925453 L 123.046939 474.649141 L 125.241694 476.921672 L 124.641419 471.174609 L 128.74017 465.117656 L 125.307349 462.760609 L 125.279211 460.81675 L 124.022386 461.624344 L 123.197008 461.145422 L 123.937972 458.825938 L 123.759766 455.961797 L 123.093836 455.633125 L 119.764187 458.8635 Z M 138.879185 471.090094 L 137.462912 469.183797 L 140.970768 466.498078 L 141.392836 467.117859 L 140.94263 468.554625 Z M 147.780134 498.275953 L 149.665372 502.126109 L 147.96772 502.877359 L 146.026206 502.745891 L 144.694347 501.731703 L 142.696557 497.242984 L 143.156143 496.735891 L 144.12221 497.468359 L 143.681383 495.496328 L 144.206623 494.914109 L 142.39642 491.862156 L 143.381246 489.035578 L 149.318338 494.022 L 149.177649 496.397828 L 147.883306 497.449578 Z M 140.717527 479.081516 L 140.576837 480.706094 L 140.633113 481.119281 L 140.01408 483.241562 L 135.089951 483.100703 L 135.971605 481.570031 L 135.821536 480.086312 L 133.720574 479.081516 L 132.248025 477.062531 L 133.861264 474.977812 L 133.176575 468.845734 L 134.067608 467.916063 L 136.262363 469.493687 L 136.872017 469.643937 L 139.995321 477.428766 L 140.13601 477.710484 Z M 125.579348 490.86675 L 124.313144 492.5195 L 124.181834 495.449375 L 122.090252 491.195422 L 121.761976 489.016797 L 126.976863 485.748859 Z M 135.512019 491.176641 L 135.268158 489.702313 L 132.58568 489.439375 L 132.257405 489.026187 L 134.649124 489.082531 L 135.380709 488.500313 L 135.718364 485.241766 L 136.909534 483.898906 L 134.630366 483.410594 L 134.452159 482.546656 L 135.558916 480.715484 L 132.970231 479.288109 L 131.816578 477.231562 L 132.482508 475.625766 L 133.289127 475.062328 L 132.58568 469.277703 L 134.724159 466.714063 L 134.817952 466.573203 L 138.128842 465.117656 L 135.63395 462.01875 L 136.018501 459.699266 L 133.598644 457.717844 L 131.225683 458.619344 L 130.888028 461.380187 L 128.599481 462.356812 L 129.302928 466.047328 L 125.682521 471.559625 L 126.695484 478.264531 L 128.280585 481.541859 L 128.505688 486.124484 L 125.279211 493.552469 L 125.963899 494.453969 L 126.432864 499.327703 L 127.81162 500.980453 L 129.996995 502.1355 L 131.938509 501.421812 L 132.538783 499.938094 L 134.31147 498.632797 L 134.527194 497.252375 L 135.23064 497.703125 L 137.162775 494.932891 L 137.012706 493.158062 Z M 135.512019 491.176641 " transform="matrix(0.416476,0,0,0.415973,0,0)"/>
<path style="fill-rule:nonzero;fill:rgb(80%,80%,80%);fill-opacity:1;stroke-width:0.5;stroke-linecap:butt;stroke-linejoin:miter;stroke:rgb(100%,100%,100%);stroke-opacity:1;stroke-miterlimit:4;" d="M 153.914191 165.030844 L 154.99281 170.176906 L 155.189775 170.768516 L 156.540393 173.473016 L 156.512255 174.552937 L 156.043291 176.909984 L 157.168806 178.656641 L 156.999979 178.7975 L 156.549772 178.806891 L 155.949498 179.182516 L 154.8615 179.924375 L 154.899017 180.497203 L 156.990599 186.028281 L 159.016526 188.094219 L 161.520798 189.390125 L 162.580658 189.258656 L 162.843278 189.840875 L 161.36135 190.038078 L 160.517213 191.146172 L 160.367145 191.916203 L 161.661487 192.921 L 161.942866 193.043078 L 162.54314 191.925594 L 164.015689 193.136984 L 165.216239 192.094625 L 166.172927 192.967953 L 166.26672 195.099625 L 166.885753 195.522203 L 167.120235 195.869656 L 166.754443 196.846281 L 165.760238 197.456672 L 167.410993 199.278453 L 167.410993 200.658875 L 167.898717 201.072062 L 167.889337 202.2365 L 166.707546 203.025312 L 166.754443 207.129016 L 164.812929 208.021125 L 164.775412 208.659687 L 166.182306 213.101453 L 165.938444 213.533422 L 165.281894 213.918437 L 165.038032 214.218937 L 165.038032 215.129828 L 164.906722 215.420937 L 162.730726 216.463297 L 162.655692 218.125438 L 162.449348 218.303859 L 162.036659 218.097266 L 161.49266 218.416547 L 161.88659 219.008156 L 162.702588 219.261703 L 163.059002 219.402562 L 163.509208 220.660906 L 162.599416 222.529641 L 162.749485 222.811359 L 163.415415 222.539031 L 163.518587 222.726844 L 162.055417 223.863109 L 161.999141 225.036937 L 160.385903 226.013563 L 161.033074 227.008969 L 161.802176 230.126656 L 162.346175 230.361422 L 163.565483 230.079703 L 164.27831 233.535453 L 162.655692 236.258734 L 164.559688 238.118078 L 164.756654 238.597 L 164.80355 240.362437 L 165.947824 242.268734 L 166.097892 242.860344 L 165.544514 246.86075 L 165.591411 247.640172 L 167.017063 254.176047 L 166.876374 254.335687 L 165.703962 254.608016 L 165.356928 255.058766 L 165.769617 255.763062 L 166.069754 255.988438 L 167.645476 255.763062 L 168.058164 257.049578 L 169.202438 257.753875 L 168.892922 260.636797 L 169.474438 264.148891 L 168.620922 265.801641 L 164.644102 269.050797 L 164.259551 269.088359 L 163.302863 268.872375 L 162.693209 268.975672 L 158.406872 272.290562 L 157.609633 278.807656 L 157.769081 279.108156 L 158.500665 279.098766 L 158.913354 279.709156 L 159.054044 281.681187 L 159.185354 282.028641 L 158.510045 284.986688 L 158.660113 285.146328 L 159.335422 283.812859 L 162.083555 288.752328 L 161.098729 289.287594 L 159.954456 289.578703 L 158.894596 291.081203 L 157.684667 291.006078 L 156.399704 291.466219 L 155.424257 291.550734 L 151.27861 291.306578 L 150.940956 291.625859 L 148.295995 291.438047 L 147.048549 292.226859 L 146.542067 292.283203 L 145.257104 292.170516 L 144.609933 291.287797 L 141.627318 291.128156 L 140.286079 290.358125 L 128.421274 281.127141 L 127.352035 281.408859 L 123.590938 278.71375 L 123.140732 278.253609 L 122.071493 276.450609 L 116.894123 274.337719 L 116.115642 274.149906 L 115.449712 275.361297 L 114.661852 277.943719 L 112.70158 279.220844 L 111.77303 278.826437 L 110.422412 274.835422 L 110.141033 274.826031 L 109.221862 276.441219 L 108.199519 276.91075 L 104.269596 275.539719 L 101.96229 275.5585 L 101.699669 274.365891 L 98.688917 273.323531 L 96.841196 267.360484 L 96.541059 266.919125 L 94.421338 260.430203 L 93.792926 259.472359 L 88.615556 258.918313 L 87.808937 258.721109 L 87.030456 258.307922 L 85.3797 259.134297 L 85.557907 258.054375 L 85.464114 257.998031 L 84.535564 258.27975 L 84.31984 258.458172 L 84.507426 259.594437 L 84.385495 259.725906 L 81.346605 260.946687 L 81.130881 260.937297 L 81.787431 259.613219 L 81.627983 259.444187 L 80.3524 259.951281 L 79.939711 259.876156 L 72.830207 257.415813 L 69.894488 254.410812 L 67.737251 250.344672 L 68.178078 244.400406 L 66.789942 241.395406 L 65.195463 240.174625 L 62.165951 239.526672 L 58.0672 240.456344 L 57.682649 239.564234 L 56.022515 239.376422 L 55.656722 239.968031 L 54.249828 239.517281 L 53.987208 238.427969 L 52.439625 238.268328 L 51.060869 241.442359 L 48.603494 236.559234 L 46.577567 236.512281 L 41.071922 233.197391 L 39.055374 232.690297 L 35.782001 233.704484 L 33.427799 233.619969 L 30.266977 232.568219 L 24.845746 226.886891 L 17.801897 224.651922 L 15.532109 221.599969 L 12.905907 220.031734 L 8.779018 215.599359 L 3.376545 206.528016 L 0 203.4385 L 5.083577 197.832297 L 5.927713 195.803922 L 5.318059 194.921203 L 6.021506 193.944578 L 5.618196 192.911609 L 6.593643 192.77075 L 7.41902 191.559359 L 8.929087 191.878641 L 9.069776 189.305609 L 10.47667 187.549563 L 11.658461 186.507203 L 12.840252 184.610297 L 14.397214 184.009297 L 14.209628 182.788516 L 14.237766 181.614688 L 13.534319 180.882219 L 14.98811 180.506594 L 12.183701 177.717578 L 12.099287 175.7925 L 13.506181 176.074219 L 15.888522 173.961328 L 20.381203 173.3885 L 23.720231 177.623672 L 25.023953 179.943156 L 25.211538 180.807094 L 27.18119 181.041859 L 27.546982 182.55375 L 29.282151 181.408094 L 31.636354 180.318781 L 29.619806 178.421875 L 30.538977 177.689406 L 31.064217 175.510781 L 33.090144 174.233656 L 35.059796 175.632859 L 36.663655 174.815875 L 35.922691 173.163125 L 36.288483 172.421266 L 38.145583 171.923563 L 37.78917 169.913969 L 38.802133 168.542937 L 39.937028 168.5805 L 41.559645 165.5755 L 39.937028 164.082391 L 41.465853 161.086781 L 40.527923 156.26 L 42.394402 154.635422 L 41.991093 152.297156 L 40.70613 151.057594 L 40.809302 149.057391 L 43.21978 148.89775 L 43.801296 147.310734 L 45.855361 147.479766 L 45.967913 148.127719 L 49.3257 148.606641 L 49.231907 149.667781 L 51.436041 149.310937 L 51.379765 150.822828 L 52.045695 150.991859 L 53.377554 150.813437 L 54.446793 149.310937 L 56.847892 148.061984 L 61.847055 148.616031 L 62.953812 147.648797 L 65.486221 147.69575 L 67.662217 148.625422 L 67.934216 149.902547 L 69.500558 150.982469 L 71.46083 149.620828 L 71.911036 150.719531 L 74.349652 151.545906 L 75.371995 151.207844 L 76.947716 148.061984 L 78.204542 147.5455 L 78.992402 148.606641 L 80.155434 148.578469 L 81.196536 150.663187 L 83.138049 150.296953 L 84.563702 150.813437 L 84.72315 151.790063 L 85.529769 152.090563 L 86.158182 150.25 L 87.808937 150.353297 L 87.668248 148.625422 L 86.71156 148.437609 L 86.627146 146.841203 L 87.949627 147.329516 L 88.887556 146.690953 L 88.16535 144.446594 L 88.521763 142.906531 L 90.772794 141.310125 L 94.083684 144.371469 L 101.268222 144.371469 L 102.168634 145.845797 L 108.011933 146.841203 L 112.513994 146.352891 L 112.513994 147.827219 L 111.163376 149.808641 L 111.613582 151.790063 L 112.9642 154.748109 L 116.106263 156.729531 L 117.456881 160.194672 L 120.158117 161.180688 L 122.859354 159.696969 L 125.56059 159.696969 L 128.712032 163.650422 L 130.963062 165.134141 L 131.863474 165.134141 L 132.763887 163.650422 L 135.455743 163.650422 L 143.550073 168.092187 L 145.350897 168.092187 L 149.402752 165.622453 Z M 153.914191 165.030844 " transform="matrix(0.416476,0,0,0.415973,0,0)"/>
<path style="fill-rule:nonzero;fill:rgb(80%,80%,80%);fill-opacity:1;stroke-width:0.5;stroke-linecap:butt;stroke-linejoin:miter;stroke:rgb(100%,100%,100%);stroke-opacity:1;stroke-miterlimit:4;" d="M 153.914191 165.030844 L 149.327717 165.509766 L 145.294621 167.9795 L 143.493797 167.9795 L 135.399468 163.537734 L 132.698231 163.537734 L 131.797819 165.021453 L 130.897407 165.021453 L 128.655756 163.537734 L 125.513693 159.593672 L 122.812457 159.593672 L 120.1206 161.068 L 117.419364 160.091375 L 116.068746 156.626234 L 112.926683 154.663594 L 111.576065 151.686766 L 111.125859 149.724125 L 112.476477 147.742703 L 112.476477 146.258984 L 107.983796 146.747297 L 102.140496 145.761281 L 101.240084 144.277562 L 94.046167 144.277562 L 90.744656 141.225609 L 91.504378 140.427406 L 93.370858 140.868766 L 93.73665 138.784047 L 91.710723 138.774656 L 91.119827 137.722906 L 90.463277 138.107922 L 88.606177 137.516312 L 87.536938 138.136094 L 86.805353 137.17825 L 85.736113 137.957672 L 83.954048 134.661563 L 82.519016 134.896328 L 82.284534 136.013813 L 80.736951 134.379844 L 80.690054 133.365656 L 78.063852 131.891328 L 78.185783 128.839375 L 75.550202 127.167844 L 76.882061 126.66075 L 77.43544 125.430578 L 76.656958 123.796609 L 77.923163 122.510094 L 77.632405 120.838562 L 76.957096 119.204594 L 75.334478 119.026172 L 74.940548 115.664328 L 73.730619 115.467125 L 72.314346 116.387406 L 70.485384 115.485906 L 70.476004 116.828766 L 71.423313 117.777219 L 71.076279 118.490906 L 68.628284 119.138859 L 68.243733 117.467328 L 65.636289 118.002594 L 65.551876 119.833766 L 64.501395 120.801 L 61.331194 120.716484 L 60.834092 119.786812 L 59.896162 120.068531 L 59.727335 118.218578 L 57.532581 118.181016 L 56.116308 116.340453 L 55.047068 117.288906 L 53.180589 117.129266 L 50.863904 115.870922 L 49.879078 117.007188 L 49.691492 114.509281 L 49.016183 113.560828 L 48.040737 114.283906 L 46.840187 113.326062 L 45.545845 111.729656 L 45.87412 109.297484 L 43.285435 109.316266 L 41.972334 107.748031 L 40.83744 107.682297 L 41.221991 105.240734 L 41.944196 104.489484 L 41.812886 101.108859 L 37.160757 100.197969 L 37.104481 98.836328 L 35.997725 98.911453 L 35.763243 97.944219 L 34.150004 97.559203 L 34.47828 95.728031 L 32.874421 95.183375 L 32.74311 94.366391 L 29.56353 93.399156 L 28.916359 91.783969 L 24.470574 88.760188 L 24.836367 87.013531 L 24.301747 85.839703 L 23.663955 85.454687 L 22.604095 85.576766 L 22.200786 86.318625 L 21.403546 85.980562 L 20.915822 87.220125 L 19.518308 86.938406 L 18.552241 88.187359 L 17.257898 86.816328 L 16.460658 86.806938 L 15.391419 88.290656 L 14.444111 88.074672 L 13.234182 89.39875 L 12.511976 88.882266 L 12.268115 87.323422 L 9.988947 87.032313 L 10.279705 85.633109 L 9.41681 85.313828 L 8.807156 84.008531 L 9.473086 82.928609 L 8.713363 82.205531 L 9.820119 81.247687 L 8.694604 77.942188 L 9.163569 77.397531 L 7.69102 76.984344 L 7.540951 76.111016 L 7.28771 74.326797 L 7.981778 73.077844 L 9.641913 72.617703 L 10.101498 70.251266 L 11.067565 69.387328 L 10.720531 68.316797 L 12.755838 65.894016 L 12.502597 64.738969 L 16.535693 63.471234 L 15.231971 62.560344 L 15.710315 61.940562 L 16.001073 61.132969 L 15.757212 60.071828 L 16.516934 59.705594 L 16.451279 58.841656 L 14.71611 57.301594 L 14.153353 56.146547 L 15.972935 53.150937 L 15.522729 52.888 L 15.91666 50.850234 L 17.511139 50.305578 L 18.495965 49.563719 L 20.512513 48.596484 L 21.394166 47.788891 L 21.065891 47.02825 L 22.416509 46.323953 L 22.829198 46.859219 L 24.892643 46.596281 L 26.534019 45.112562 L 27.171811 45.638437 L 29.019531 45.084391 L 30.22946 43.741531 L 32.039663 43.131141 L 32.808765 41.027641 L 31.983388 40.548719 L 31.974008 36.726734 L 35.500622 33.393062 L 37.995514 33.148906 L 37.141999 31.646406 L 37.882963 30.998453 L 40.058959 30.960891 L 41.916059 27.148297 L 42.309989 28.603844 L 44.645433 29.702547 L 44.94557 28.594453 L 46.690118 28.538109 L 46.40874 29.834016 L 48.190805 28.594453 L 47.393565 28.200047 L 47.365428 27.270375 L 47.796875 25.673969 L 47.149704 25.777266 L 46.474395 24.556484 L 46.868325 23.795844 L 45.527086 23.542297 L 45.330121 22.706531 L 45.714672 21.729906 L 45.686534 20.837797 L 43.941986 18.950281 L 44.28902 18.048781 L 40.012062 17.57925 L 38.567651 17.626203 L 36.907516 15.522703 L 35.66945 16.180047 L 33.455937 15.353672 L 32.358559 19.654578 L 31.730147 17.513516 L 30.342012 16.227 L 30.36077 14.668156 L 32.049043 12.752469 L 32.874421 9.024391 L 33.981177 7.690922 L 33.699798 6.225984 L 34.393866 4.263344 L 35.575657 3.267937 L 35.444347 2.450953 L 37.685998 0 L 38.689582 6.845766 L 39.805718 9.127688 L 41.203232 10.273344 L 42.319368 9.090125 L 44.561019 9.700516 L 45.292604 12.536484 L 48.181426 13.37225 L 48.359633 15.907719 L 51.57673 15.156469 L 50.751352 16.339688 L 51.783074 16.846781 L 51.210938 18.499531 L 54.953275 19.269562 L 54.784448 16.940687 L 57.166788 17.015812 L 57.532581 20.7345 L 59.877404 21.579656 L 59.539749 22.528109 L 60.937264 22.678359 L 61.837676 23.683156 L 63.422776 23.298141 L 63.450914 24.284156 L 63.600983 25.730313 L 62.897536 26.462781 L 64.285671 28.256391 L 64.276292 30.20025 L 65.007877 31.242609 L 67.896699 29.092156 L 69.2098 29.279969 L 70.372832 31.298953 L 69.922626 32.763891 L 70.372832 34.745312 L 73.871308 33.449406 L 75.991029 34.735922 L 75.43765 36.914547 L 75.765925 38.999266 L 77.351026 39.797469 L 77.069647 40.426641 L 78.36399 41.647422 L 81.946879 41.1685 L 80.3524 39.196469 L 80.361779 37.158703 L 82.247017 35.693766 L 86.608388 36.031828 L 88.812521 40.229437 L 89.938037 40.886781 L 96.25968 40.013453 L 97.929194 40.670797 L 98.435676 39.158906 L 99.242295 39.459406 L 98.501331 37.092969 L 99.232916 36.773688 L 98.820227 35.440219 L 97.722849 35.167891 L 97.591539 36.106953 L 95.837612 36.322938 L 94.92782 35.60925 L 94.196235 34.379078 L 93.098858 35.515344 L 93.023824 34.632625 L 91.954584 34.322734 L 91.982722 32.707547 L 92.714307 32.238016 L 93.427133 31.843609 L 92.01086 30.998453 L 91.907688 29.392656 L 89.750451 29.167281 L 89.319003 31.421031 L 88.803142 30.3505 L 88.371695 29.721328 L 88.202867 28.641406 L 86.636526 27.777469 L 85.811148 28.312734 L 85.210873 27.542703 L 85.079563 26.932312 L 84.826322 26.152891 L 85.670458 25.420422 L 85.773631 24.255984 L 84.404254 23.157281 L 86.645905 22.98825 L 86.289492 21.504531 L 86.514595 20.631203 L 88.155971 21.382453 L 88.784384 20.302531 L 88.343557 19.053578 L 89.3659 17.842187 L 91.776378 19.175656 L 91.391827 20.246187 L 92.348515 22.002234 L 92.901893 21.701734 L 93.483409 21.739297 L 94.083684 22.800437 L 95.415543 22.715922 L 96.559817 24.631609 L 97.403953 24.133906 L 100.508499 24.960281 L 101.483946 24.49075 L 102.309323 25.09175 L 101.784083 27.467578 L 100.846154 27.937109 L 102.346841 28.378469 L 102.75015 30.857594 L 102.515668 31.730922 L 104.147665 32.820234 L 106.248626 32.651203 L 106.126696 33.778078 L 105.882834 34.848609 L 104.935525 36.013047 L 103.256632 33.045609 L 102.909598 34.097359 L 103.481735 35.721937 L 102.872081 36.651609 L 104.935525 38.257406 L 104.73856 39.619047 L 106.483109 41.525344 L 106.520626 43.412859 L 107.270969 44.314359 L 105.892213 47.272406 L 107.908761 49.282 L 107.158418 49.535547 L 107.711796 51.197688 L 108.968621 52.578109 L 111.23841 53.310578 L 112.241994 52.803484 L 114.277301 53.235453 L 116.828468 56.400094 L 118.216604 56.456437 L 117.222399 59.329969 L 118.685568 59.64925 L 119.229567 60.879422 L 121.255495 60.85125 L 123.478387 62.118984 L 125.738796 64.870437 L 130.043892 65.246062 L 129.921961 63.865641 L 131.310096 62.813891 L 131.469544 61.865437 L 132.960852 61.226875 L 133.842505 62.231672 L 133.279748 64.353953 L 133.795609 65.067641 L 137.528567 66.297812 L 138.963599 65.302406 L 140.342355 65.931578 L 141.561663 65.095812 L 143.531314 65.396312 L 144.591174 65.969141 L 143.418763 67.077234 L 143.653245 69.021094 L 144.994484 69.631484 L 146.063723 68.222891 L 146.870343 68.100813 L 148.061513 68.485828 L 148.164685 66.579531 L 147.395583 65.631078 L 147.864548 63.452453 L 147.995858 62.175328 L 148.558615 61.367734 L 150.500129 60.466234 L 151.878885 59.583516 L 153.867295 59.367531 L 152.413504 57.84625 L 153.0044 56.597297 L 151.991436 54.869422 L 151.306748 55.5925 L 150.809645 56.127766 L 150.012406 56.822672 L 148.62427 55.498594 L 148.746201 54.822469 L 149.055718 54.249641 L 150.697094 54.916375 L 152.019574 53.629859 L 151.597506 52.700187 L 150.340681 52.803484 L 149.702889 53.874016 L 148.427305 49.676406 L 148.89627 49.310172 L 150.199991 50.052031 L 150.115578 49.253828 L 150.237509 48.258422 L 150.762749 47.488391 L 151.250472 48.183297 L 152.103988 48.136344 L 153.79226 48.878203 L 154.46757 47.394484 L 152.807435 47.413266 L 151.728816 46.643234 L 152.132126 45.760516 L 153.370192 46.840438 L 153.895433 46.248828 L 152.357229 44.145328 L 152.460401 42.332937 L 154.289363 43.290781 L 155.799429 43.272 L 156.634186 41.497172 L 157.300116 42.436234 L 157.600253 43.046625 L 157.731563 44.135937 L 156.390325 44.398875 L 156.090187 45.065609 L 157.11253 45.441234 L 157.347012 47.140937 L 158.791423 48.145734 L 157.168806 48.540141 L 156.859289 49.319562 L 159.354181 50.098984 L 160.020111 48.577703 L 160.4328 49.883 L 163.068381 49.817266 L 164.916101 52.73775 L 163.837483 54.653437 L 166.463685 55.038453 L 166.351133 57.329766 L 167.532924 57.264031 L 167.242166 58.203094 L 168.001889 59.977922 L 166.576236 60.315984 L 166.942029 61.179922 L 166.754443 61.846656 L 167.279683 62.447656 L 168.058164 61.884219 L 168.902301 61.611891 L 170.121609 65.020687 L 169.333748 66.757953 L 169.830851 67.527984 L 171.397193 67.931781 L 170.890711 66.222687 L 171.378434 64.879828 L 172.297605 65.65925 L 172.654018 67.246266 L 174.736221 68.438875 L 174.426704 69.133781 L 171.556641 69.697219 L 172.503949 71.509609 L 170.796918 71.002516 L 170.318574 71.810109 L 171.988088 72.598922 L 174.923807 71.857062 L 176.143115 72.157562 L 175.308358 74.317406 L 171.237745 79.444688 L 171.397193 80.862672 L 170.534298 81.163172 L 170.571815 82.78775 L 169.04299 84.919422 L 170.487401 85.905437 L 171.762985 89.971578 L 170.646849 94.441516 L 171.218986 95.793766 L 172.8885 96.291469 L 172.62588 98.329234 L 174.708083 101.578391 L 175.796081 105.193781 L 174.398566 111.513672 L 174.61429 113.354234 L 173.085465 114.096094 L 173.676361 116.640953 L 172.841604 118.885312 L 172.982293 121.571031 L 170.468643 126.632578 L 165.113067 124.979828 L 165.169342 125.120688 L 165.525755 126.416594 L 166.426168 126.998812 L 166.154168 129.158656 L 164.522171 130.050766 L 163.396656 130.013203 L 163.152794 130.1165 L 160.714178 132.576844 L 163.668656 139.863969 L 163.040243 142.380656 L 163.040243 142.699938 L 163.631138 144.155484 L 162.674451 145.376266 L 162.458727 145.460781 L 158.631975 145.827016 L 156.18398 150.296953 L 156.137084 151.930922 L 154.026743 154.813844 L 154.176811 157.91275 L 154.120536 158.175687 L 152.976262 160.232234 L 153.642192 161.293375 L 153.961088 161.528141 L 154.289363 161.3685 L 154.392535 161.528141 L 154.617638 164.035438 Z M 153.914191 165.030844 " transform="matrix(0.416476,0,0,0.415973,0,0)"/>
<path style="fill-rule:nonzero;fill:rgb(80%,80%,80%);fill-opacity:1;stroke-width:0.5;stroke-linecap:butt;stroke-linejoin:miter;stroke:rgb(100%,100%,100%);stroke-opacity:1;stroke-miterlimit:4;" d="M 307.059281 149.113734 L 307.99721 149.602047 L 307.753348 150.090359 L 310.689067 150.447203 L 312.189754 151.489563 L 313.840509 151.705547 L 314.600232 151.142109 L 315.275541 152.006047 L 317.901743 152.315937 L 319.449326 151.705547 L 320.415393 153.161094 L 321.897321 153.865391 L 324.270282 153.762094 L 324.542282 155.443016 L 327.206001 155.273984 L 328.15331 154.278578 L 332.477163 153.846609 L 333.236886 152.879375 L 334.390539 152.691563 L 334.493711 151.433219 L 337.973429 151.113937 L 338.114118 151.705547 L 336.650949 152.757297 L 336.857293 154.212844 L 338.761289 154.287969 L 338.986393 156.006453 L 340.505838 156.588672 L 343.741694 154.992266 L 345.317415 154.898359 L 346.386654 152.869984 L 349.828855 153.649406 L 350.663612 150.710141 L 353.383607 151.90275 L 358.326494 150.437813 L 361.402902 150.907344 L 366.533375 149.958891 L 372.770604 151.142109 L 375.134186 149.639609 L 376.681769 150.475375 L 380.818037 149.752297 L 386.914578 152.50375 L 387.430439 152.851203 L 386.88644 154.241016 L 389.5314 155.151906 L 391.3885 156.673187 L 392.870428 156.006453 L 395.590423 156.907953 L 393.714565 157.227234 L 395.702975 159.227438 L 403.32834 161.772297 L 404.744613 160.795672 L 406.414127 161.161906 L 407.230125 162.241828 L 406.348472 163.847625 L 408.449433 163.950922 L 408.993432 164.645828 L 414.377146 166.016859 L 413.514251 169.613469 L 413.973837 172.026859 L 415.596454 172.609078 L 416.965831 171.660625 L 418.213277 173.623266 L 416.806383 173.379109 L 416.17797 173.998891 L 417.725554 175.125766 L 418.719759 175.116375 L 419.657688 173.895594 L 419.864032 177.191703 L 421.111478 179.041656 L 420.220446 179.492406 L 420.680031 181.286016 L 419.90155 182.159344 L 417.894381 182.488016 L 415.905971 181.830672 L 415.699627 183.295609 L 414.414663 183.652453 L 414.33025 184.413094 L 412.173013 184.488219 L 410.841153 184.084422 L 409.846948 182.873031 L 408.552606 182.4035 L 408.055503 181.370531 L 407.126953 181.502 L 405.260474 180.196703 L 403.769166 180.037062 L 401.780756 177.426469 L 400.345725 179.004094 L 398.901314 178.900797 L 397.972764 178.788109 L 397.719523 178.055641 L 396.800352 178.440656 L 396.359525 179.567531 L 397.297454 181.558344 L 396.359525 182.497406 L 396.6878 184.685422 L 397.925867 185.521187 L 400.017449 186.882828 L 400.523931 190.254063 L 401.311792 190.845672 L 400.683379 192.902219 L 401.386826 193.606516 L 400.53331 195.540984 L 401.771377 196.273453 L 398.441728 201.194141 L 397.325592 204.424516 L 395.909319 212.331422 L 395.449734 220.557609 L 390.553743 218.106656 L 390.056641 217.036125 L 388.424644 218.040922 L 388.949884 219.261703 L 388.096368 220.491875 L 389.13747 223.731641 L 388.593471 224.529844 L 389.446987 225.957219 L 389.099953 226.736641 L 390.009744 227.591187 L 389.446987 228.492687 L 386.858302 228.248531 L 385.413891 232.051734 L 382.159276 233.469719 L 374.768394 232.596391 L 373.821085 231.572812 L 372.517363 232.239547 L 371.391848 231.920266 L 370.500816 232.605781 L 373.661637 236.963031 L 373.389638 238.812984 L 371.429366 237.751844 L 371.391848 236.34325 L 369.797369 235.225766 L 366.364548 237.329266 L 368.371716 244.297109 L 365.567308 254.091531 L 365.370343 257.096531 L 363.353795 257.631797 L 362.444003 256.533094 L 361.815591 253.847375 L 358.992424 251.433984 L 359.761526 250.973844 L 359.677112 249.771844 L 359.067458 248.983031 L 356.544428 250.288328 L 355.803464 249.217797 L 354.246502 249.058156 L 349.781958 246.391219 L 351.535886 256.983844 L 348.684581 257.07775 L 346.649275 256.110516 L 345.973965 255.021203 L 344.998519 255.359266 L 344.304451 254.326297 L 342.73811 250.203812 L 342.672454 248.100313 L 340.843492 249.734281 L 341.978387 252.466953 L 341.631353 253.631391 L 340.655907 253.753469 L 340.684044 255.763062 L 339.708598 257.397031 L 340.299493 259.754078 L 339.530391 261.153281 L 337.457568 261.960875 L 336.360191 261.566469 L 335.797433 261.960875 L 335.97564 263.425813 L 335.159641 263.773266 L 331.20158 263.848391 L 326.633864 262.571266 L 326.080486 261.641594 L 321.728494 261.622813 L 318.558293 260.279953 L 315.538161 260.439594 L 315.453747 263.331906 L 317.27333 266.383859 L 316.738711 268.647 L 315.191127 270.806844 L 315.54754 273.971484 L 308.831967 271.764687 L 307.922175 271.304547 L 308.053486 269.726922 L 309.05707 269.849 L 309.554172 267.435609 L 308.606864 265.463578 L 307.143694 265.266375 L 307.46259 261.688547 L 306.27142 261.970266 L 305.34287 261.265969 L 305.60549 259.941891 L 307.46259 259.265766 L 305.539835 258.608422 L 305.558594 256.993234 L 304.714457 256.758469 L 306.046317 254.786437 L 306.383971 252.974047 L 308.681898 251.865953 L 309.71362 252.213406 L 309.535414 250.617 L 306.693488 251.5185 L 306.018179 250.898719 L 306.777902 249.142672 L 307.903417 249.7155 L 308.100382 248.5135 L 308.91638 248.842172 L 309.85431 247.790422 L 310.64217 247.818594 L 310.614032 244.776031 L 309.329069 244.128078 L 308.297347 244.597609 L 307.049901 246.297313 L 306.712247 247.931281 L 307.171832 248.475937 L 306.083834 248.691922 L 298.730469 247.292719 L 296.742059 244.719687 L 298.627297 242.062141 L 297.933229 241.714687 L 295.110062 242.738266 L 296.32937 239.000797 L 302.238324 239.282516 L 302.397772 237.789406 L 300.268673 234.6905 L 300.634465 233.826562 L 301.919428 234.080109 L 304.067286 232.624562 L 302.454048 229.835547 L 301.469222 230.051531 L 300.653224 229.422359 L 300.465638 228.070109 L 302.538462 228.126453 L 302.82922 227.290687 L 301.487981 222.510859 L 300.062328 222.426344 L 300.868947 223.769203 L 299.236951 223.140031 L 297.595574 225.393781 L 297.426747 223.881891 L 298.44909 223.346625 L 295.963577 222.6705 L 294.941235 223.449922 L 294.303443 223.130641 L 296.301232 220.698469 L 297.060955 222.125844 L 297.736264 221.506062 L 300.231156 218.529234 L 302.116393 213.946609 L 298.758607 212.171781 L 299.396399 211.260891 L 299.096261 210.021328 L 296.939024 209.157391 L 296.713921 207.683063 L 298.486607 208.584563 L 298.477228 207.720625 L 299.368261 207.739406 L 299.555846 206.049094 L 300.981499 206.030312 L 301.788118 205.138203 L 300.784534 203.635703 L 302.55722 203.325812 L 302.622875 201.757578 L 300.765775 200.949984 L 301.609912 199.963969 L 301.150326 198.348781 L 299.621502 199.898234 L 297.145368 198.33 L 295.447716 199.193938 L 295.100683 198.452078 L 293.478065 198.433297 L 294.509787 197.663266 L 294.097098 196.301625 L 294.791166 196.658469 L 295.166338 195.916609 L 294.491029 195.972953 L 294.509787 195.240484 L 293.309238 195.099625 L 293.131031 194.498625 L 294.050202 193.888234 L 295.419578 194.179344 L 295.297648 193.249672 L 296.601369 192.32 L 295.213234 191.484234 L 296.610749 189.211703 L 296.441921 187.333578 L 294.903717 186.422687 L 293.890754 187.821891 L 294.190891 188.629484 L 292.859032 189.681234 L 294.106478 191.183734 L 292.624549 191.399719 L 291.114483 189.052063 L 291.695999 187.051859 L 292.530756 186.413297 L 292.118067 185.596312 L 291.152 185.55875 L 289.988968 181.736766 L 287.869248 180.102797 L 284.39891 179.558141 L 283.151464 181.821281 L 282.251052 181.595906 L 281.810225 180.525375 L 280.506503 180.919781 L 279.427885 178.731766 L 276.060719 178.64725 L 275.957546 176.102391 L 275.319754 176.149344 L 277.280027 175.276016 L 277.645819 174.027062 L 276.595338 172.590297 L 275.028996 172.195891 L 275.357272 169.200281 L 274.119205 167.519359 L 274.644445 166.655422 L 276.989269 165.669406 L 274.062929 164.805469 L 273.856585 161.443625 L 275.254099 161.105562 L 276.426511 162.166703 L 277.927198 161.687781 L 277.673957 159.828438 L 275.713685 158.016047 L 276.30458 156.889172 L 276.051339 154.00625 L 277.692715 153.292563 L 277.167475 151.837016 L 287.850489 148.888359 L 292.493239 149.320328 L 299.190054 148.662984 L 303.692115 149.188859 L 305.774317 148.193453 Z M 307.059281 149.113734 " transform="matrix(0.416476,0,0,0.415973,0,0)"/>
</g>
</svg>
